<svg width="31" height="29" viewBox="0 0 31 29" fill="none" xmlns="http://www.w3.org/2000/svg">
<path d="M20.4004 0C18.6379 0 15.3254 1.55062 13.1941 3.28687C9.18164 3.90937 4.40039 5.4625 4.40039 7C4.40039 8.8125 10.9504 10.6187 15.1566 10.95C16.6941 12.3125 19.5754 13 20.4004 13C19.6191 12.2188 18.8379 11.4312 19.0129 10.65C21.1379 10.1375 23.3504 9.15 25.2941 8.28125C26.6066 9.775 28.6191 11 29.4004 11C28.4004 9 28.4004 8 28.4004 7C28.4004 6 29.4004 3.99687 30.4004 3C28.8316 3 26.6504 4.22812 25.3004 5.71875C23.2066 4.79375 20.8066 3.70937 18.5254 3.24062C18.8316 2.19 19.6129 0.78625 20.4004 0ZM9.40039 5C9.66561 5 9.91996 5.10536 10.1075 5.29289C10.295 5.48043 10.4004 5.73478 10.4004 6C10.4004 6.26522 10.295 6.51957 10.1075 6.70711C9.91996 6.89464 9.66561 7 9.40039 7C9.13517 7 8.88082 6.89464 8.69328 6.70711C8.50575 6.51957 8.40039 6.26522 8.40039 6C8.40039 5.73478 8.50575 5.48043 8.69328 5.29289C8.88082 5.10536 9.13517 5 9.40039 5ZM10.4004 16C11.1879 16.7875 11.9691 18.1875 12.2754 19.2375C9.99414 19.7062 7.59414 20.7937 5.50039 21.7188C4.15039 20.225 1.96914 19 0.400391 19C1.40039 19.9937 2.40039 22 2.40039 23C2.40039 24 2.40039 25 1.40039 27C2.18164 27 4.19414 25.775 5.50664 24.2812C7.45039 25.15 9.66289 26.1375 11.7879 26.65C11.9629 27.4312 11.1816 28.2188 10.4004 29C11.2254 29 14.1066 28.3125 15.6441 26.95C19.8504 26.6188 26.4004 24.8125 26.4004 23C26.4004 21.4625 21.6191 19.9125 17.6066 19.2875C15.4754 17.55 12.1629 16 10.4004 16ZM21.4004 21C21.6656 21 21.92 21.1054 22.1075 21.2929C22.295 21.4804 22.4004 21.7348 22.4004 22C22.4004 22.2652 22.295 22.5196 22.1075 22.7071C21.92 22.8946 21.6656 23 21.4004 23C21.1352 23 20.8808 22.8946 20.6933 22.7071C20.5057 22.5196 20.4004 22.2652 20.4004 22C20.4004 21.7348 20.5057 21.4804 20.6933 21.2929C20.8808 21.1054 21.1352 21 21.4004 21Z" fill="black"/>
</svg>
