<svg width="29" height="30" viewBox="0 0 29 30" fill="none" xmlns="http://www.w3.org/2000/svg">
<path d="M4.40039 19.184V10.07L10.6004 6.406L9.58339 4.684L2.89139 8.639C2.74178 8.72747 2.61781 8.8534 2.53171 9.00439C2.44561 9.15537 2.40035 9.32619 2.40039 9.5V19.184C1.81716 19.3896 1.31183 19.7706 0.95375 20.2748C0.595667 20.779 0.402373 21.3816 0.400391 22C0.400391 23.654 1.74639 25 3.40039 25C5.05439 25 6.40039 23.654 6.40039 22C6.39841 21.3816 6.20511 20.779 5.84703 20.2748C5.48895 19.7706 4.98362 19.3896 4.40039 19.184ZM3.40039 23C3.14291 22.9885 2.8998 22.8781 2.72167 22.6918C2.54354 22.5055 2.44412 22.2577 2.44412 22C2.44412 21.7423 2.54354 21.4945 2.72167 21.3082C2.8998 21.1219 3.14291 21.0115 3.40039 21C3.65787 21.0115 3.90099 21.1219 4.07911 21.3082C4.25724 21.4945 4.35666 21.7423 4.35666 22C4.35666 22.2577 4.25724 22.5055 4.07911 22.6918C3.90099 22.8781 3.65787 22.9885 3.40039 23ZM25.4004 19C23.7464 19 22.4004 20.346 22.4004 22C22.4004 22.353 22.4724 22.687 22.5854 23.002L14.4004 27.838L7.99639 24.054L6.97939 25.776L13.8914 29.86C14.0453 29.9516 14.2211 30 14.4003 30.0002C14.5794 30.0004 14.7553 29.9523 14.9094 29.861L23.8694 24.566C24.3194 24.835 24.8394 25 25.4004 25C27.0544 25 28.4004 23.654 28.4004 22C28.4004 20.346 27.0544 19 25.4004 19ZM25.4004 23C25.1429 22.9885 24.8998 22.8781 24.7217 22.6918C24.5435 22.5055 24.4441 22.2577 24.4441 22C24.4441 21.7423 24.5435 21.4945 24.7217 21.3082C24.8998 21.1219 25.1429 21.0115 25.4004 21C25.6579 21.0115 25.901 21.1219 26.0791 21.3082C26.2572 21.4945 26.3567 21.7423 26.3567 22C26.3567 22.2577 26.2572 22.5055 26.0791 22.6918C25.901 22.8781 25.6579 22.9885 25.4004 23ZM14.4004 6C15.1314 6 15.7924 5.727 16.3134 5.292L24.4004 10.071V17H26.4004V9.5C26.4004 9.32619 26.3552 9.15537 26.2691 9.00439C26.183 8.8534 26.059 8.72747 25.9094 8.639L17.3424 3.577C17.3784 3.39 17.4004 3.198 17.4004 3C17.4004 1.346 16.0544 0 14.4004 0C12.7464 0 11.4004 1.346 11.4004 3C11.4004 4.654 12.7464 6 14.4004 6ZM14.4004 2C14.5985 1.9998 14.7921 2.05837 14.9569 2.16828C15.1217 2.2782 15.2501 2.43452 15.326 2.61747C15.4019 2.80042 15.4218 3.00177 15.3832 3.19604C15.3446 3.39031 15.2493 3.56876 15.1092 3.70881C14.9692 3.84887 14.7907 3.94422 14.5964 3.98281C14.4022 4.02141 14.2008 4.0015 14.0179 3.92561C13.8349 3.84972 13.6786 3.72127 13.5687 3.5565C13.4588 3.39174 13.4002 3.19806 13.4004 3C13.4004 2.448 13.8494 2 14.4004 2Z" fill="black"/>
</svg>
