<svg width="20" height="20" viewBox="0 0 20 20" fill="none" xmlns="http://www.w3.org/2000/svg">
<path fill-rule="evenodd" clip-rule="evenodd" d="M0 0H8.33513L8.336 1.63173H7.70119V16.614C7.70119 17.512 7.32894 18.3733 6.66634 19.0083C6.00374 19.6433 5.10506 20 4.168 20C3.23094 20 2.33226 19.6433 1.66966 19.0083C1.00705 18.3733 0.634809 17.512 0.634809 16.614V1.63173H0V0ZM5.91314 18.2665C6.37883 17.8312 6.64878 17.2389 6.66549 16.6157V1.6184H1.67572V4.16017H3.39145V5.11855H1.67572V6.80612H3.39145V7.76449H1.67572V9.45206H3.39145V10.4338H1.67572V12.1213H3.39145V13.103H1.67572V14.7906H3.39145V15.749H1.67572V16.619C1.69334 17.2422 1.96416 17.8342 2.43048 18.2688C2.89681 18.7035 3.52179 18.9464 4.1723 18.946C4.82281 18.9456 5.44744 18.7018 5.91314 18.2665ZM11.417 1.63173V0H19.753V1.63173H19.1182V16.614C19.1182 17.512 18.7459 18.3733 18.0833 19.0083C17.4207 19.6433 16.5221 20 15.585 20C14.6479 20 13.7493 19.6433 13.0867 19.0083C12.4241 18.3733 12.0518 17.512 12.0518 16.614V1.63173H11.417ZM13.0918 8.74203H18.0807V1.6259H13.0918V4.16767H14.8076V5.12605H13.0918V6.81362H14.8076V7.77199H13.0918V8.74203ZM17.85 14.2132C17.8782 14.2071 17.907 14.2039 17.9359 14.2038C17.9919 14.2037 18.0474 14.2149 18.0985 14.2367C18.1497 14.2585 18.1955 14.2904 18.2328 14.3303C18.2702 14.3703 18.2983 14.4173 18.3153 14.4684C18.3324 14.5194 18.3379 14.5733 18.3316 14.6266C18.3252 14.6798 18.3072 14.7312 18.2787 14.7773C18.2501 14.8234 18.2117 14.8632 18.1659 14.8941C18.1201 14.925 18.0681 14.9463 18.0131 14.9566C17.9581 14.9669 17.9014 14.9659 17.8469 14.9538L17.4489 15.6135C17.4857 15.6564 17.5122 15.7065 17.5266 15.7602C17.541 15.8139 17.5428 15.87 17.5321 15.9245C17.5213 15.979 17.4982 16.0306 17.4644 16.0757C17.4305 16.1207 17.3867 16.1581 17.3361 16.1851C17.2855 16.2122 17.2293 16.2284 17.1715 16.2324C17.1136 16.2365 17.0556 16.2283 17.0014 16.2086C16.9472 16.1888 16.8982 16.1579 16.8579 16.1181C16.8175 16.0783 16.7868 16.0305 16.7678 15.978H16.1891C16.1576 16.0663 16.0927 16.1402 16.0072 16.1851C15.9218 16.2301 15.8218 16.2429 15.727 16.2211L15.329 16.8809C15.3658 16.9237 15.3923 16.9738 15.4067 17.0275C15.4211 17.0812 15.4229 17.1373 15.4122 17.1918C15.4014 17.2464 15.3783 17.2979 15.3445 17.343C15.3106 17.388 15.2668 17.4254 15.2162 17.4525C15.1656 17.4795 15.1094 17.4957 15.0516 17.4997C14.9937 17.5038 14.9357 17.4956 14.8815 17.4759C14.8273 17.4561 14.7783 17.4252 14.738 17.3854C14.6976 17.3456 14.6669 17.2978 14.6479 17.2453H14.0692C14.0501 17.2975 14.0193 17.3451 13.979 17.3847C13.9386 17.4244 13.8897 17.455 13.8356 17.4746C13.7815 17.4942 13.7236 17.5023 13.666 17.4982C13.6083 17.4941 13.5523 17.478 13.5018 17.451C13.4514 17.424 13.4077 17.3867 13.3739 17.3418C13.3401 17.297 13.3169 17.2456 13.3061 17.1912C13.2953 17.1369 13.297 17.081 13.3112 17.0273C13.3254 16.9737 13.3517 16.9237 13.3882 16.8809L12.9902 16.2211C12.9319 16.2344 12.8713 16.2349 12.8128 16.2226C12.7543 16.2103 12.6994 16.1856 12.6523 16.1501C12.6052 16.1147 12.5671 16.0696 12.5408 16.0181C12.5146 15.9666 12.5008 15.9101 12.5005 15.8528C12.5003 15.7955 12.5136 15.7389 12.5394 15.6872C12.5653 15.6356 12.603 15.5901 12.6498 15.5543C12.6965 15.5186 12.7512 15.4933 12.8096 15.4806C12.868 15.4679 12.9286 15.4679 12.987 15.4807L13.3861 14.8192C13.3291 14.7523 13.2982 14.6686 13.2986 14.5823C13.299 14.4961 13.3307 14.4126 13.3882 14.3462L12.9902 13.6865C12.9319 13.6998 12.8713 13.7003 12.8128 13.688C12.7543 13.6757 12.6994 13.6509 12.6523 13.6155C12.6052 13.5801 12.5671 13.535 12.5408 13.4835C12.5146 13.432 12.5008 13.3755 12.5005 13.3182C12.5003 13.2609 12.5136 13.2043 12.5394 13.1526C12.5653 13.1009 12.603 13.0555 12.6498 13.0197C12.6965 12.9839 12.7512 12.9587 12.8096 12.946C12.868 12.9332 12.9286 12.9333 12.987 12.9461L13.3861 12.2846C13.3497 12.2415 13.3237 12.1914 13.3097 12.1377C13.2958 12.084 13.2943 12.028 13.3054 11.9737C13.3165 11.9194 13.3399 11.868 13.3739 11.8233C13.4079 11.7785 13.4518 11.7415 13.5024 11.7146C13.553 11.6878 13.6091 11.6719 13.6669 11.6681C13.7246 11.6642 13.7825 11.6725 13.8365 11.6923C13.8905 11.7121 13.9393 11.743 13.9795 11.7828C14.0197 11.8226 14.0503 11.8703 14.0692 11.9226H14.6479C14.667 11.8705 14.6977 11.8231 14.7379 11.7835C14.7781 11.7439 14.8269 11.7132 14.8807 11.6936C14.9346 11.6739 14.9924 11.6658 15.0499 11.6697C15.1075 11.6736 15.1634 11.6894 15.2139 11.7162C15.2643 11.7429 15.3081 11.7798 15.3421 11.8244C15.376 11.869 15.3994 11.9202 15.4106 11.9743C15.4218 12.0284 15.4204 12.0843 15.4067 12.1378C15.393 12.1914 15.3672 12.2415 15.3311 12.2846L15.7302 12.9459C15.8247 12.9252 15.9238 12.9387 16.0085 12.9838C16.0932 13.0289 16.1576 13.1023 16.1891 13.1899H16.7678C16.787 13.138 16.8178 13.0906 16.858 13.0512C16.8983 13.0117 16.947 12.9811 17.0009 12.9616C17.0548 12.942 17.1124 12.9339 17.1699 12.9379C17.2274 12.9419 17.2833 12.9578 17.3336 12.9845C17.384 13.0112 17.4277 13.0481 17.4617 13.0927C17.4956 13.1372 17.519 13.1883 17.5301 13.2424C17.5413 13.2965 17.54 13.3522 17.5263 13.4057C17.5127 13.4593 17.4869 13.5093 17.451 13.5524L17.85 14.2132ZM16.9123 15.5411C16.9791 15.4957 17.059 15.4713 17.1409 15.4711C17.1687 15.4712 17.1965 15.4741 17.2236 15.4797L17.6237 14.8169C17.568 14.7504 17.5378 14.6676 17.5382 14.5824C17.5386 14.4971 17.5696 14.4146 17.6259 14.3485L17.2268 13.6875C17.1323 13.7081 17.0332 13.6946 16.9484 13.6495C16.8637 13.6045 16.7994 13.5311 16.7678 13.4434H16.1891C16.1576 13.5317 16.0927 13.6055 16.0072 13.6505C15.9218 13.6954 15.8218 13.7083 15.727 13.6865L15.329 14.3462C15.3861 14.4122 15.4177 14.495 15.4185 14.5807C15.4193 14.6664 15.3892 14.7497 15.3332 14.8167L15.7333 15.4797C15.8275 15.4603 15.9257 15.4745 16.0097 15.5196C16.0936 15.5647 16.1575 15.6376 16.1891 15.7246H16.7678C16.795 15.6506 16.8455 15.5865 16.9123 15.5411ZM14.7924 16.8084C14.8592 16.7631 14.9391 16.7386 15.021 16.7384C15.0487 16.7385 15.0764 16.7413 15.1035 16.7468L15.5036 16.084C15.448 16.0174 15.418 15.9346 15.4184 15.8495C15.4189 15.7643 15.4499 15.6818 15.5062 15.6158L15.1069 14.9548C15.0124 14.9754 14.9133 14.9619 14.8285 14.9168C14.7438 14.8718 14.6795 14.7984 14.6479 14.7107H14.0692C14.0376 14.7983 13.9733 14.8717 13.8886 14.9167C13.8038 14.9617 13.7047 14.9752 13.6103 14.9545L13.2112 15.6161C13.2674 15.6821 13.2982 15.7645 13.2986 15.8497C13.299 15.9348 13.2689 16.0175 13.2133 16.084L13.6134 16.7468C13.7076 16.7274 13.8059 16.7416 13.8899 16.7867C13.9738 16.8319 14.0376 16.9049 14.0692 16.9919H14.6479C14.6751 16.9179 14.7256 16.8538 14.7924 16.8084ZM13.6103 12.4199L13.2112 13.0815C13.2674 13.1475 13.2982 13.2297 13.2986 13.3148C13.299 13.3999 13.2689 13.4826 13.2133 13.5491L13.6134 14.2119C13.7076 14.1926 13.8059 14.2068 13.8898 14.2519C13.9738 14.2971 14.0376 14.37 14.0692 14.457H14.6479C14.6796 14.37 14.7434 14.2971 14.8273 14.2519C14.9113 14.2068 15.0096 14.1926 15.1037 14.2119L15.5039 13.5491C15.4482 13.4826 15.4181 13.3998 15.4184 13.3147C15.4188 13.2295 15.4497 13.147 15.506 13.0809L15.1069 12.4202C15.0124 12.4408 14.9133 12.4273 14.8285 12.3822C14.7438 12.3372 14.6795 12.2637 14.6479 12.1761H14.0692C14.0376 12.2637 13.9733 12.3371 13.8886 12.3821C13.8038 12.4271 13.7047 12.4405 13.6103 12.4199Z" fill="black"/>
</svg>
