<svg width="34" height="34" viewBox="0 0 34 34" fill="none" xmlns="http://www.w3.org/2000/svg">
<path fill-rule="evenodd" clip-rule="evenodd" d="M9.47121 10.9701C9.47146 10.5726 9.62948 10.1914 9.91055 9.91033C10.1916 9.62925 10.5728 9.47123 10.9703 9.47099L14.9711 9.46957C15.1682 9.46951 15.3633 9.50828 15.5454 9.58366C15.7274 9.65905 15.8929 9.76957 16.0322 9.90891C16.1716 10.0483 16.2821 10.2137 16.3575 10.3958C16.4329 10.5778 16.4716 10.773 16.4716 10.9701L16.4702 14.9709C16.4699 15.3684 16.3119 15.7495 16.0308 16.0306C15.7497 16.3117 15.3686 16.4697 14.9711 16.4699L10.9703 16.4713C10.7732 16.4714 10.5781 16.4326 10.396 16.3573C10.2139 16.2819 10.0485 16.1713 9.90914 16.032C9.76979 15.8927 9.65927 15.7272 9.58389 15.5451C9.5085 15.3631 9.46973 15.1679 9.4698 14.9709L9.47121 10.9701ZM17.4707 10.9708C17.4706 10.7737 17.5094 10.5786 17.5848 10.3965C17.6602 10.2144 17.7707 10.049 17.9101 9.90962C18.0494 9.77027 18.2148 9.65975 18.3969 9.58437C18.579 9.50898 18.7741 9.47022 18.9712 9.47028L22.9706 9.47028C23.1676 9.47022 23.3628 9.50898 23.5449 9.58437C23.7269 9.65975 23.8924 9.77027 24.0317 9.90962C24.1711 10.049 24.2816 10.2144 24.357 10.3965C24.4324 10.5786 24.4711 10.7737 24.4711 10.9708L24.4711 14.9702C24.4711 15.1672 24.4324 15.3624 24.357 15.5444C24.2816 15.7265 24.1711 15.892 24.0317 16.0313C23.8924 16.1706 23.7269 16.2812 23.5449 16.3565C23.3628 16.4319 23.1677 16.4707 22.9706 16.4706L18.9712 16.4706C18.7741 16.4707 18.579 16.4319 18.3969 16.3565C18.2148 16.2812 18.0494 16.1706 17.9101 16.0313C17.7707 15.892 17.6602 15.7265 17.5848 15.5444C17.5094 15.3624 17.4706 15.1672 17.4707 14.9702L17.4707 10.9708ZM9.4705 18.971C9.47044 18.7739 9.50921 18.5788 9.58459 18.3967C9.65998 18.2146 9.7705 18.0492 9.90984 17.9098C10.0492 17.7705 10.2146 17.66 10.3967 17.5846C10.5788 17.5092 10.7739 17.4704 10.971 17.4705H14.9704C15.1674 17.4704 15.3626 17.5092 15.5447 17.5846C15.7267 17.66 15.8922 17.7705 16.0315 17.9098C16.1709 18.0492 16.2814 18.2146 16.3568 18.3967C16.4322 18.5788 16.4709 18.7739 16.4709 18.971V22.9704C16.4709 23.1674 16.4322 23.3626 16.3568 23.5446C16.2814 23.7267 16.1709 23.8922 16.0315 24.0315C15.8922 24.1708 15.7267 24.2814 15.5447 24.3568C15.3626 24.4321 15.1674 24.4709 14.9704 24.4708H10.971C10.7739 24.4709 10.5788 24.4321 10.3967 24.3568C10.2146 24.2814 10.0492 24.1708 9.90984 24.0315C9.7705 23.8922 9.65998 23.7267 9.58459 23.5446C9.50921 23.3626 9.47044 23.1674 9.4705 22.9704V18.971ZM17.4707 18.971C17.4706 18.7739 17.5094 18.5788 17.5848 18.3967C17.6602 18.2146 17.7707 18.0492 17.9101 17.9098C18.0494 17.7705 18.2148 17.66 18.3969 17.5846C18.579 17.5092 18.7741 17.4704 18.9712 17.4705L22.9706 17.4705C23.3683 17.4705 23.7498 17.6286 24.031 17.9098C24.3123 18.1911 24.4703 18.5725 24.4704 18.9703L24.4711 22.9704C24.4711 23.1674 24.4324 23.3626 24.357 23.5446C24.2816 23.7267 24.1711 23.8922 24.0317 24.0315C23.8924 24.1708 23.7269 24.2814 23.5449 24.3568C23.3628 24.4321 23.1676 24.4709 22.9706 24.4708L18.9705 24.4701C18.573 24.4699 18.1918 24.3119 17.9108 24.0308C17.6297 23.7497 17.4717 23.3686 17.4714 22.9711L17.4707 18.971Z" fill="black"/>
</svg>
