<svg width="24" height="24" viewBox="0 0 24 24" fill="none" xmlns="http://www.w3.org/2000/svg">
<path fill-rule="evenodd" clip-rule="evenodd" d="M17.2047 10.796L19.0007 9.00001C19.5457 8.45501 19.8187 8.18201 19.9647 7.88801C20.1015 7.61198 20.1727 7.30808 20.1727 7.00001C20.1727 6.69195 20.1015 6.38804 19.9647 6.11201C19.8187 5.81801 19.5457 5.54501 19.0007 5.00001C18.4557 4.45501 18.1827 4.18201 17.8887 4.03601C17.6127 3.89923 17.3088 3.82806 17.0007 3.82806C16.6927 3.82806 16.3888 3.89923 16.1127 4.03601C15.8187 4.18201 15.5457 4.45501 15.0007 5.00001L13.1817 6.81901C14.1494 8.47562 15.5371 9.84749 17.2047 10.796ZM11.7277 8.27301L4.85772 15.143C4.43172 15.569 4.21972 15.781 4.07972 16.043C3.93972 16.303 3.88072 16.598 3.76372 17.188L3.14772 20.265C3.08172 20.597 3.04772 20.763 3.14272 20.858C3.23772 20.953 3.40272 20.919 3.73572 20.853L6.81272 20.237C7.40272 20.12 7.69772 20.061 7.95872 19.921C8.21873 19.781 8.43172 19.569 8.85672 19.144L15.7467 12.254C14.1288 11.2411 12.7558 9.88174 11.7267 8.27401" fill="#8895B3"/>
</svg>
