<svg width="24" height="24" viewBox="0 0 24 24" fill="none" xmlns="http://www.w3.org/2000/svg">
<path d="M12 3.75C11.4033 3.75 10.831 3.98705 10.409 4.40901C9.98706 4.83097 9.75 5.40326 9.75 6V13.4813L9.50025 13.7048C8.93411 14.211 8.53504 14.8773 8.35586 15.6153C8.17668 16.3534 8.22582 17.1285 8.4968 17.838C8.76777 18.5475 9.2478 19.158 9.87335 19.5887C10.4989 20.0194 11.2405 20.2501 12 20.2501C12.7595 20.2501 13.5011 20.0194 14.1267 19.5887C14.7522 19.158 15.2322 18.5475 15.5032 17.838C15.7742 17.1285 15.8233 16.3534 15.6441 15.6153C15.465 14.8773 15.0659 14.211 14.4998 13.7048L14.25 13.4813V6C14.25 5.40326 14.0129 4.83097 13.591 4.40901C13.169 3.98705 12.5967 3.75 12 3.75ZM8.25 6C8.25 5.00544 8.64509 4.05161 9.34835 3.34835C10.0516 2.64509 11.0054 2.25 12 2.25C12.9946 2.25 13.9484 2.64509 14.6517 3.34835C15.3549 4.05161 15.75 5.00544 15.75 6V12.8258C16.4735 13.5642 16.9629 14.4998 17.1568 15.5152C17.3507 16.5306 17.2405 17.5807 16.8401 18.5338C16.4396 19.4869 15.7666 20.3005 14.9056 20.8726C14.0446 21.4448 13.0338 21.75 12 21.75C10.9662 21.75 9.95543 21.4448 9.0944 20.8726C8.23338 20.3005 7.56043 19.4869 7.15995 18.5338C6.75947 17.5807 6.64928 16.5306 6.84319 15.5152C7.03711 14.4998 7.5265 13.5642 8.25 12.8258V6ZM11.25 9C11.25 8.80109 11.329 8.61032 11.4697 8.46967C11.6103 8.32902 11.8011 8.25 12 8.25C12.1989 8.25 12.3897 8.32902 12.5303 8.46967C12.671 8.61032 12.75 8.80109 12.75 9V14.3775C13.2506 14.5544 13.6726 14.9026 13.9413 15.3606C14.21 15.8186 14.3081 16.3568 14.2184 16.8801C14.1286 17.4034 13.8567 17.8782 13.4508 18.2204C13.0448 18.5627 12.531 18.7504 12 18.7504C11.469 18.7504 10.9552 18.5627 10.5492 18.2204C10.1433 17.8782 9.8714 17.4034 9.78164 16.8801C9.69189 16.3568 9.79003 15.8186 10.0587 15.3606C10.3274 14.9026 10.7494 14.5544 11.25 14.3775V9Z" fill="#005493"/>
</svg>
