<svg width="32" height="32" viewBox="0 0 32 32" fill="none" xmlns="http://www.w3.org/2000/svg">
<path d="M21 2C19.2375 2 15.925 3.55062 13.7937 5.28687C9.78125 5.90937 5 7.4625 5 9C5 10.8125 11.55 12.6187 15.7563 12.95C17.2938 14.3125 20.175 15 21 15C20.2188 14.2188 19.4375 13.4312 19.6125 12.65C21.7375 12.1375 23.95 11.15 25.8937 10.2812C27.2062 11.775 29.2188 13 30 13C29 11 29 10 29 9C29 8 30 5.99688 31 5C29.4312 5 27.25 6.22813 25.9 7.71875C23.8062 6.79375 21.4062 5.70937 19.125 5.24062C19.4312 4.19 20.2125 2.78625 21 2ZM10 7C10.2652 7 10.5196 7.10536 10.7071 7.29289C10.8946 7.48043 11 7.73478 11 8C11 8.26522 10.8946 8.51957 10.7071 8.70711C10.5196 8.89464 10.2652 9 10 9C9.73478 9 9.48043 8.89464 9.29289 8.70711C9.10536 8.51957 9 8.26522 9 8C9 7.73478 9.10536 7.48043 9.29289 7.29289C9.48043 7.10536 9.73478 7 10 7ZM11 18C11.7875 18.7875 12.5688 20.1875 12.875 21.2375C10.5938 21.7062 8.19375 22.7938 6.1 23.7188C4.75 22.225 2.56875 21 1 21C2 21.9937 3 24 3 25C3 26 3 27 2 29C2.78125 29 4.79375 27.775 6.10625 26.2812C8.05 27.15 10.2625 28.1375 12.3875 28.65C12.5625 29.4312 11.7812 30.2188 11 31C11.825 31 14.7062 30.3125 16.2437 28.95C20.45 28.6188 27 26.8125 27 25C27 23.4625 22.2188 21.9125 18.2062 21.2875C16.075 19.55 12.7625 18 11 18ZM22 23C22.2652 23 22.5196 23.1054 22.7071 23.2929C22.8946 23.4804 23 23.7348 23 24C23 24.2652 22.8946 24.5196 22.7071 24.7071C22.5196 24.8946 22.2652 25 22 25C21.7348 25 21.4804 24.8946 21.2929 24.7071C21.1054 24.5196 21 24.2652 21 24C21 23.7348 21.1054 23.4804 21.2929 23.2929C21.4804 23.1054 21.7348 23 22 23Z" fill="black"/>
</svg>
