<svg width="19" height="29" viewBox="0 0 19 29" fill="none" xmlns="http://www.w3.org/2000/svg">
<path d="M10.5 1C10.5 0.723858 10.2761 0.5 10 0.5C9.72386 0.5 9.5 0.723858 9.5 1H10.5ZM9.64645 15.3536C9.84171 15.5488 10.1583 15.5488 10.3536 15.3536L13.5355 12.1716C13.7308 11.9763 13.7308 11.6597 13.5355 11.4645C13.3403 11.2692 13.0237 11.2692 12.8284 11.4645L10 14.2929L7.17157 11.4645C6.97631 11.2692 6.65973 11.2692 6.46447 11.4645C6.2692 11.6597 6.2692 11.9763 6.46447 12.1716L9.64645 15.3536ZM9.5 1V15H10.5V1H9.5Z" fill="#8895B3"/>
<path d="M15.5 8C15.5 7.72386 15.2761 7.5 15 7.5C14.7239 7.5 14.5 7.72386 14.5 8L15.5 8ZM14.6464 19.3536C14.8417 19.5488 15.1583 19.5488 15.3536 19.3536L18.5355 16.1716C18.7308 15.9763 18.7308 15.6597 18.5355 15.4645C18.3403 15.2692 18.0237 15.2692 17.8284 15.4645L15 18.2929L12.1716 15.4645C11.9763 15.2692 11.6597 15.2692 11.4645 15.4645C11.2692 15.6597 11.2692 15.9763 11.4645 16.1716L14.6464 19.3536ZM14.5 8L14.5 19L15.5 19L15.5 8L14.5 8Z" fill="#8895B3"/>
<path d="M6 29C4.2875 29 2.8595 28.3974 1.716 27.1923C0.5725 25.9872 0.0005 24.4872 0 22.6923C0 21.8974 0.175 21.1026 0.525 20.3077C0.875 19.5128 1.3125 18.75 1.8375 18.0192C2.3625 17.2885 2.93125 16.6026 3.54375 15.9615C4.15625 15.3205 4.725 14.7628 5.25 14.2885C5.35 14.1859 5.46575 14.1123 5.59725 14.0677C5.72875 14.0231 5.863 14.0005 6 14C6.1375 14 6.272 14.0226 6.4035 14.0677C6.535 14.1128 6.6505 14.1864 6.75 14.2885C7.275 14.7628 7.84375 15.3205 8.45625 15.9615C9.06875 16.6026 9.6375 17.2885 10.1625 18.0192C10.6875 18.75 11.125 19.5128 11.475 20.3077C11.825 21.1026 12 21.8974 12 22.6923C12 24.4872 11.4282 25.9872 10.2847 27.1923C9.14125 28.3974 7.713 29 6 29ZM6.20625 26.6923C6.35625 26.6795 6.4845 26.6185 6.591 26.5092C6.6975 26.4 6.7505 26.2687 6.75 26.1154C6.75 25.9359 6.69375 25.7918 6.58125 25.6831C6.46875 25.5744 6.325 25.5262 6.15 25.5385C5.6375 25.5769 5.09375 25.4328 4.51875 25.1062C3.94375 24.7795 3.58125 24.1864 3.43125 23.3269C3.40625 23.1859 3.34075 23.0705 3.23475 22.9808C3.12875 22.891 3.00675 22.8462 2.86875 22.8462C2.69375 22.8462 2.55 22.9136 2.4375 23.0485C2.325 23.1833 2.2875 23.3403 2.325 23.5192C2.5375 24.6859 3.0375 25.5192 3.825 26.0192C4.6125 26.5192 5.40625 26.7436 6.20625 26.6923Z" fill="#8895B3"/>
</svg>
