<svg width="22" height="20" viewBox="0 0 22 20" fill="none" xmlns="http://www.w3.org/2000/svg">
<path d="M17.026 10.2165L13.3953 13.684C13.0169 14.0069 12.8373 14.5275 12.9748 15.0474C13.0716 15.4016 13.3059 15.7079 13.6266 15.8992C13.9473 16.0906 14.3281 16.1514 14.6858 16.0684C15.1873 15.9509 15.5543 15.5738 15.6754 15.1238M17.6154 11.6075L17.3241 12.6629C17.7518 13.2471 18.0008 13.9362 18.0408 14.6458C18.0807 15.3555 17.91 16.055 17.5493 16.6588C17.0362 17.5186 16.2136 18.0827 15.2956 18.2946L15.2916 18.2922C15.2328 18.3059 15.1776 18.3309 15.1293 18.3659C15.0811 18.401 15.0406 18.4452 15.0102 18.4961C14.9797 18.5471 14.96 18.6037 14.9522 18.6629C14.9443 18.722 14.9484 18.7824 14.9642 18.8407C15.0307 19.0861 15.2884 19.2398 15.5336 19.1857C16.1233 19.0484 16.6761 18.7969 17.1602 18.4457C17.6443 18.0946 18.0502 17.6506 18.3545 17.1393C19.427 15.3421 19.0635 13.0784 17.6154 11.6075ZM15.5196 10.3621C13.5439 9.78448 11.3703 10.5448 10.3025 12.3343C9.66176 13.4079 9.53231 14.6496 9.84084 15.7885C9.90964 16.03 10.1633 16.1814 10.4108 16.1234C10.4696 16.1097 10.5247 16.0846 10.573 16.0496C10.6213 16.0146 10.6618 15.9703 10.6922 15.9194C10.7226 15.8684 10.7423 15.8118 10.7502 15.7527C10.7581 15.6936 10.754 15.6331 10.7381 15.5749C10.6107 15.1081 10.5777 14.6238 10.6411 14.1501C10.7045 13.6764 10.8631 13.2225 11.1077 12.8148C11.8854 11.5116 13.3141 10.8923 14.7424 11.1064" fill="#8895B3"/>
<path d="M8.8 13.6C8.8 12.472 9.2 11.44 9.84 10.624C9.736 10.376 9.624 10.12 9.488 9.872C9.808 9.6 10.056 9.272 10.216 8.888C10.608 8.968 11.024 9.112 11.4 9.336C12.099 8.97459 12.8762 8.79066 13.663 8.80043C14.4498 8.8102 15.2222 9.01335 15.912 9.392C15.96 9.096 16 8.768 16 8.4C16 5.536 12.824 4.904 9.864 6.504C9.6 6.184 9.272 5.936 8.888 5.776C9.04 5.032 9.392 4.192 10.184 3.8C12.072 2.856 12 0 8.4 0C5.544 0 4.912 3.168 6.504 6.12C6.176 6.376 5.92 6.712 5.768 7.096C5.024 6.944 4.184 6.6 3.784 5.808C2.848 3.912 0 4 0 7.6C0 10.456 3.16 11.08 6.112 9.496C6.368 9.816 6.712 10.072 7.104 10.232C6.944 10.968 6.592 11.8 5.808 12.192C3.92 13.136 4 16 7.6 16C8.248 16 8.8 15.824 9.2 15.528C8.952 14.936 8.8 14.288 8.8 13.6ZM8 8.8C7.544 8.8 7.2 8.44 7.2 8C7.2 7.56 7.544 7.2 8 7.2C8.432 7.2 8.8 7.56 8.8 8C8.8 8.44 8.432 8.8 8 8.8Z" fill="#8895B3"/>
</svg>
