<svg width="32" height="26" viewBox="0 0 32 26" fill="none" xmlns="http://www.w3.org/2000/svg">
<path d="M24.3401 15.6558C24.8829 15.5084 25.4388 15.8276 25.582 16.3688C25.7252 16.9097 25.4014 17.4676 24.8585 17.615C24.3157 17.7624 18.8848 18.0937 18.8848 18.0937C18.8848 18.0937 23.7976 15.8029 24.3401 15.6558ZM24.3594 25.3443C24.9019 25.4914 25.4581 25.1723 25.6013 24.631C25.7446 24.0901 25.4204 23.5323 24.8776 23.3849C24.3351 23.2375 18.9041 22.8281 18.9041 22.8281C18.9041 22.8281 23.8169 25.1969 24.3594 25.3443Z" stroke="black" stroke-linejoin="round"/>
<path d="M27.9955 17.757C28.1662 17.5265 28.3923 17.344 28.6522 17.2268C28.9122 17.1097 29.1974 17.0618 29.4808 17.0876C29.7641 17.1135 30.0363 17.2123 30.2713 17.3747C30.5064 17.537 30.6966 17.7575 30.8238 18.0152C30.9511 18.2729 31.0112 18.5593 30.9984 18.8472C30.9856 19.135 30.9004 19.4148 30.7508 19.6599C30.6012 19.905 30.3922 20.1073 30.1437 20.2476C29.8952 20.3879 29.6154 20.4615 29.3309 20.4615H21.9863" stroke="black" stroke-linecap="round"/>
<path d="M13.7395 4.07042C11.2137 4.07808 8.78969 5.07949 6.97935 6.86319C5.16902 8.64688 4.11406 11.0732 4.03726 13.6299C3.96045 16.1865 4.86781 18.6733 6.56773 20.5652C8.26765 22.457 10.6271 23.6058 13.1477 23.7689L13.1586 23.7695C13.1781 23.7701 13.1974 23.7715 13.2174 23.771C13.2628 23.7739 13.3141 23.7771 13.3709 23.7771C13.6006 23.7841 13.8294 23.7431 14.0427 23.6566C14.2561 23.5701 14.4495 23.4399 14.6109 23.2741C14.7723 23.1084 14.8982 22.9107 14.9807 22.6935C15.0632 22.4762 15.1005 22.244 15.0903 22.0115C15.0536 21.1194 15.2001 20.2293 15.5205 19.3975C15.8409 18.5657 16.3283 17.8102 16.9517 17.1788C17.5752 16.5475 18.3212 16.054 19.1426 15.7295C19.964 15.405 20.843 15.2567 21.7239 15.2938C21.955 15.3039 22.1856 15.2654 22.4012 15.1806C22.6168 15.0958 22.8126 14.9665 22.9763 14.8011C23.14 14.6356 23.268 14.4376 23.3522 14.2194C23.4364 14.0013 23.4749 13.7678 23.4653 13.5338L23.457 13.3388L23.4564 13.3278C23.3063 10.8213 22.217 8.4674 20.4111 6.74659C18.6053 5.02578 16.2189 4.06786 13.7392 4.06838L13.7395 4.07042ZM8.69243 9.7479C8.57071 9.62464 8.50232 9.45745 8.50232 9.28313C8.50232 9.1088 8.57071 8.94162 8.69243 8.81836C8.81415 8.69509 8.97924 8.62584 9.15138 8.62584C9.32353 8.62584 9.48862 8.69509 9.61034 8.81836L10.5282 9.7479C10.65 9.87117 10.7184 10.0383 10.7184 10.2127C10.7184 10.387 10.65 10.5542 10.5282 10.6774C10.4065 10.8007 10.2414 10.87 10.0693 10.87C9.89715 10.87 9.73206 10.8007 9.61034 10.6774L8.69243 9.7479ZM10.5282 18.1138L9.61034 19.0433C9.48862 19.1666 9.32353 19.2359 9.15138 19.2359C8.97924 19.2359 8.81415 19.1666 8.69243 19.0433C8.57071 18.9201 8.50232 18.7529 8.50232 18.5786C8.50232 18.4042 8.57071 18.2371 8.69243 18.1138L9.61034 17.1843C9.73206 17.061 9.89715 16.9917 10.0693 16.9917C10.2414 16.9917 10.4065 17.061 10.5282 17.1843C10.65 17.3075 10.7184 17.4747 10.7184 17.649C10.7184 17.8234 10.65 17.9905 10.5282 18.1138ZM9.19728 13.9309C9.19722 14.1051 9.12884 14.2722 9.00717 14.3954C8.8855 14.5186 8.7205 14.5879 8.54843 14.5879L7.25045 14.5882C7.07829 14.5882 6.91318 14.519 6.79144 14.3957C6.6697 14.2724 6.60131 14.1052 6.60131 13.9309C6.60131 13.7565 6.6697 13.5893 6.79144 13.466C6.91318 13.3427 7.07829 13.2735 7.25045 13.2735L8.54843 13.2738C8.7205 13.2738 8.8855 13.3431 9.00717 13.4663C9.12884 13.5895 9.19722 13.7566 9.19728 13.9309ZM14.1425 10.265L14.9457 13.8379C14.9672 13.9726 14.9672 14.1099 14.9457 14.2446C14.8893 14.5652 14.7103 14.8504 14.4476 15.0382C14.1849 15.226 13.8596 15.3013 13.5424 15.2478C13.2251 15.1942 12.9416 15.0162 12.7532 14.7522C12.5648 14.4883 12.4868 14.1597 12.5362 13.8379L13.3394 10.265C13.3543 10.1804 13.3944 10.1024 13.4544 10.0416C13.5145 9.98087 13.5914 9.9402 13.675 9.92509C13.7814 9.90769 13.8904 9.93366 13.978 9.99735C14.0656 10.061 14.1247 10.1572 14.1425 10.265ZM14.3898 8.67253C14.3855 8.84389 14.3152 9.00675 14.194 9.12639C14.0728 9.24603 13.9102 9.31299 13.7409 9.31299C13.5717 9.31299 13.4091 9.24603 13.2879 9.12639C13.1667 9.00675 13.0964 8.84389 13.0921 8.67253L13.0918 7.3581C13.0918 7.18376 13.1602 7.01655 13.2819 6.89327C13.4037 6.76999 13.5688 6.70074 13.7409 6.70074C13.9131 6.70074 14.0782 6.76999 14.1999 6.89327C14.3217 7.01655 14.3901 7.18376 14.3901 7.3581L14.3898 8.67253ZM18.7894 9.7479L17.8715 10.6774C17.7498 10.8007 17.5847 10.87 17.4126 10.87C17.2404 10.87 17.0753 10.8007 16.9536 10.6774C16.8319 10.5542 16.7635 10.387 16.7635 10.2127C16.7635 10.0383 16.8319 9.87116 16.9536 9.7479L17.8715 8.81836C17.9933 8.69509 18.1583 8.62584 18.3305 8.62584C18.5026 8.62584 18.6677 8.69509 18.7894 8.81836C18.9112 8.94162 18.9796 9.1088 18.9796 9.28313C18.9796 9.45745 18.9112 9.62463 18.7894 9.7479Z" fill="black"/>
</svg>
