<svg width="31" height="24" viewBox="0 0 31 24" fill="none" xmlns="http://www.w3.org/2000/svg">
<path d="M16.3447 8.30128C15.9326 7.58743 15.3364 7.08106 14.5639 6.77778C13.7914 6.4745 13.0158 6.44641 12.2371 6.69352C11.5562 5.95259 10.7155 5.49625 9.71638 5.34408C8.71723 5.1919 7.78479 5.36573 6.90387 5.87433C6.05333 6.36539 5.43979 7.07401 5.07082 7.99581C4.70186 8.91762 4.6636 9.851 4.93646 10.7971L4.73142 10.9155C3.88088 11.4066 3.32284 12.1237 3.06168 13.0744C2.80374 14.0131 2.92088 14.9175 3.40756 15.7604C3.67062 16.2161 4.01167 16.5963 4.4339 16.8892C4.85613 17.1821 5.31601 17.3823 5.81676 17.478L5.82991 17.5008C6.0886 17.9488 6.46526 18.268 6.95231 18.4627C7.43936 18.6574 7.92344 18.6716 8.4057 18.5248C8.78386 18.9342 9.25165 19.2008 9.78951 19.3256C10.3274 19.4505 10.8634 19.4144 11.3781 19.2185C11.307 19.6038 11.3672 19.9538 11.547 20.2652C11.7575 20.6297 12.0663 20.8665 12.478 20.9832C12.8853 21.0924 13.2755 21.0493 13.64 20.8388C14.0046 20.6284 14.2414 20.3195 14.3461 19.9046C14.4553 19.4974 14.4002 19.1039 14.1898 18.7394C14.1065 18.5951 14.0004 18.4639 13.8639 18.3504L13.9398 18.3065C14.3803 18.0522 14.6679 17.6735 14.8027 17.1704C14.9375 16.6673 14.8778 16.1955 14.6235 15.7551C14.4481 15.4513 14.2143 15.2218 13.9265 15.074C14.1943 14.6258 14.2955 14.1522 14.229 13.6337L15.2011 13.0725L15.1967 13.0649C15.9786 12.5426 16.4855 11.8247 16.713 10.9035C16.9406 9.98233 16.8182 9.12144 16.3447 8.30128ZM15.1719 8.72525C15.5227 9.33278 15.6082 9.97194 15.4284 10.6427C15.2487 11.3135 14.8551 11.8243 14.2551 12.1707C13.883 12.3855 13.4855 12.5037 13.0657 12.5132C13.299 13.1277 13.305 13.752 13.0914 14.3817C12.8777 15.0113 12.4666 15.4917 11.8818 15.8293C11.2211 16.2107 10.5233 16.2998 9.79257 16.104C9.69167 16.6483 9.40521 17.0465 8.93438 17.3184C8.50151 17.5683 8.0493 17.6268 7.56257 17.5028C7.08342 17.3745 6.7167 17.09 6.46679 16.6572C6.04465 16.6275 5.65256 16.5096 5.28937 16.2839C4.93056 16.0658 4.63774 15.7691 4.4229 15.397C4.07653 14.797 3.99102 14.1579 4.18274 13.4903C4.37446 12.8227 4.76809 12.3119 5.37562 11.9612C5.80089 11.7156 6.25396 11.6059 6.73044 11.6245C6.57964 11.4685 6.44608 11.2723 6.32331 11.0596C5.9024 10.3306 5.80108 9.5588 6.02693 8.73987C6.25278 7.92094 6.7384 7.30643 7.47503 6.88113C8.18887 6.46899 8.94868 6.36446 9.74569 6.55234C10.5427 6.74022 11.1668 7.18991 11.5974 7.883L11.7265 7.80847C12.3264 7.4621 12.958 7.38097 13.6364 7.55633C14.3148 7.73168 14.8299 8.13291 15.1719 8.72525Z" fill="#005493"/>
<path d="M22.7752 0C21.7214 0 20.7329 0.350992 20.0543 0.952881C19.5994 0.63317 19.0599 0.462207 18.5075 0.462712C17.0747 0.462712 15.8962 1.59454 15.7864 3.02764C14.8587 3.28838 14.1955 4.15158 14.1955 5.16395C14.1955 5.29786 14.2074 5.43131 14.2308 5.56254C14.0789 5.87116 13.9999 6.21172 14 6.55703C14 7.77932 14.9751 8.77376 16.1736 8.77376C16.2985 8.77375 16.4232 8.76284 16.5463 8.74115C16.618 8.89423 16.7067 9.03841 16.8107 9.17083C15.9152 9.34603 15.4147 10.0736 15.6068 11.0656C15.1274 11.3079 14.737 11.3918 14.7189 12.0265C14.7041 12.5454 14.9725 13.0264 15.4012 13.3709C14.9725 13.7155 14.7189 14.1961 14.7189 14.7153C14.7189 15.3091 15.2528 15.8557 15.6255 16.2107C15.243 16.7205 15.2167 17.5255 15.6121 18.2175C15.6488 18.2818 15.6887 18.3441 15.7317 18.4042L14.9776 21L17.4742 19.4028C17.8414 19.3795 18.1572 19.355 18.5074 19.4099C19.0189 19.4099 19.5067 19.1785 19.877 18.7672C19.9605 18.7761 20.0445 18.7807 20.1283 18.7807C21.4389 18.7807 22.5051 17.6932 22.5051 16.3566C22.5051 16.1996 22.4906 16.0447 22.4618 15.8929C22.8228 15.7903 23.1548 15.6018 23.4306 15.343C23.7064 15.0842 23.9182 14.7624 24.0484 14.404C24.4974 14.261 24.9028 14.0026 25.2257 13.6538C26.6525 13.6456 27.8886 12.603 28.1766 11.1934C28.9461 10.6451 29.4172 9.77976 29.4657 8.8242C30.383 8.47289 31 7.58166 31 6.55703C31 5.27504 30.0191 4.22238 28.7827 4.13827C28.596 2.99035 27.6157 2.11232 26.4379 2.11232C26.3843 2.11232 26.3305 2.11421 26.2768 2.11795C25.8919 0.885818 24.4693 0 22.7752 0ZM22.7752 0.806867C24.2263 0.806867 25.4576 1.60379 25.5782 2.62111L25.5824 2.65782C25.088 2.18324 24.4319 1.921 23.7495 1.92522C23.3137 1.92839 22.8846 2.04027 22.4998 2.25104C22.115 2.46181 21.7864 2.76502 21.5428 3.13405C22.0322 2.67683 22.6705 2.42033 23.3329 2.41466C23.6825 2.41223 24.0287 2.47982 24.3517 2.61357C24.6747 2.74732 24.9682 2.94461 25.2154 3.19417C25.4627 3.44373 25.6588 3.74068 25.7926 4.06806C25.9264 4.39544 25.9952 4.74684 25.9952 5.1022C25.9949 5.6412 25.8362 6.16893 25.5395 6.61773C25.8137 6.36264 26.033 6.05256 26.1831 5.7073C26.3333 5.36204 26.4112 4.98921 26.4117 4.61266C26.4106 4.0329 26.2263 3.47011 25.886 3.00718C26.0679 2.96132 26.2423 2.92292 26.4379 2.91913C27.3109 2.91913 28.0213 3.64242 28.0236 4.53213L28.0234 4.99395C28.2282 4.97249 28.4246 4.94482 28.6232 4.93977C29.4974 4.93977 30.2088 5.66527 30.2088 6.55703C30.2088 7.31393 29.7043 7.96153 28.9819 8.13184L28.6601 8.20779C28.6673 8.36191 28.6766 8.51108 28.6787 8.65993C28.6787 9.45986 28.2792 10.1881 27.6097 10.608L27.4522 10.7069L27.4255 10.8937C27.2668 12.0072 26.3138 12.847 25.2086 12.847C25.1063 12.8451 24.9826 12.8374 24.8721 12.8302L24.7442 12.9907C24.4558 13.3432 23.9375 13.6263 23.4159 13.7293C23.2297 14.4565 22.7944 14.955 21.9289 15.1713L21.3758 15.2092L21.5907 15.7303C21.6725 15.9285 21.7144 16.1415 21.714 16.3566C21.714 17.2483 21.0027 17.9737 20.1284 17.9737C19.952 17.973 19.738 17.9285 19.5473 17.884C19.2628 18.2803 19.0617 18.5151 18.5075 18.6029C18.1076 18.5974 17.6614 18.5105 17.2243 18.6101L16.3311 19.1816L16.5204 18.5299L16.6263 18.228C16.4996 18.0859 16.3913 17.9751 16.2959 17.8113C16.0239 17.3353 16.0647 16.7725 16.3849 16.5822C16.4396 16.5496 16.486 16.5044 16.5206 16.4502C16.5552 16.396 16.5768 16.3344 16.5839 16.2702C16.6088 16.0397 16.4723 15.9108 16.2462 15.6972C16.0449 15.5072 15.5104 15.0025 15.5104 14.7154C15.5104 14.3074 15.8426 13.9297 16.357 13.7533L17.4722 13.3707L16.3569 12.9885C15.8425 12.8121 15.5103 12.4345 15.5103 12.0264C15.514 11.8187 16.1936 11.5956 16.3694 11.3993C16.2086 10.6988 16.3815 10.1171 17.2141 9.93882C17.3968 9.93972 17.616 9.99452 17.8109 10.0448C17.9801 9.77498 18.1509 9.52192 18.3674 9.27839L17.9142 9.05832C17.7338 8.97098 17.5742 8.84479 17.4462 8.68845C17.3183 8.53211 17.2251 8.34934 17.1731 8.15272L17.0601 7.72588C16.7498 7.84307 16.5037 7.96047 16.1737 7.96689C15.4115 7.96689 14.7913 7.33439 14.7913 6.55703C14.7913 6.30087 14.8593 6.05019 14.9881 5.8318L15.074 5.6861C15.027 5.50274 14.9887 5.35935 14.9867 5.16395C14.9867 4.44219 15.5166 3.83972 16.219 3.7625L16.5894 3.72169C16.5819 3.56126 16.5721 3.4021 16.5693 3.24646C16.5693 2.15645 17.4388 1.26968 18.5075 1.26968C18.9928 1.26968 19.4572 1.45357 19.8151 1.78757L20.1107 2.0633L20.3774 1.75849C20.8988 1.16259 21.7951 0.806867 22.7752 0.806867ZM18.2729 3.83325C17.9317 3.83698 17.589 3.95668 17.2896 4.17665C16.9903 4.39661 16.7483 4.70659 16.5954 5.06596C16.3942 5.53893 16.3615 6.06349 16.5046 6.52423C16.6476 6.98498 16.9547 7.34417 17.3583 7.5228C17.3902 7.5367 17.4225 7.54944 17.4552 7.56098C17.183 7.33914 16.9951 7.01265 16.9221 6.63435C16.8491 6.25605 16.8952 5.84805 17.0529 5.47639C17.2391 5.03868 17.5661 4.68456 17.9619 4.49193C18.3577 4.2993 18.7899 4.28395 19.1634 4.44923C19.1823 4.45848 19.2011 4.46817 19.2196 4.47832C19.0291 4.57341 18.8682 4.70709 18.7495 4.86896C18.6307 5.03084 18.5573 5.21654 18.535 5.41164C18.5315 5.44297 18.5294 5.47446 18.5286 5.50605C18.6812 5.29622 18.9088 5.12948 19.1837 5.02606C19.4586 4.92264 19.7691 4.887 20.0773 4.92347C20.3788 4.95962 20.6655 5.06328 20.904 5.22239C21.1425 5.38149 21.3229 5.58949 21.4244 5.82217C21.4264 5.8115 21.4282 5.80081 21.4299 5.79008C21.4681 5.45367 21.3521 5.11111 21.1076 4.83776C20.8632 4.56441 20.5102 4.38265 20.1263 4.33246C20.0438 4.32166 19.9608 4.31705 19.8781 4.31868C19.7248 4.32207 19.5742 4.34692 19.432 4.39232C19.2804 4.20102 19.0908 4.05231 18.8759 3.95601C18.6872 3.87257 18.4828 3.83094 18.2729 3.83325ZM20.8483 11.1596C20.3973 11.1489 19.9654 11.2716 19.6188 11.5089C19.2722 11.7461 19.0299 12.0848 18.9291 12.4731C18.899 12.5918 18.8824 12.7138 18.8796 12.8372C18.8812 12.8312 18.8829 12.8252 18.8846 12.8191C18.9513 12.6109 19.0639 12.4201 19.2158 12.2578C19.3677 12.0954 19.5561 11.9647 19.7702 11.873C19.9842 11.7813 20.2198 11.7305 20.4634 11.7235C20.707 11.7164 20.9538 11.7532 21.1898 11.8319C21.4259 11.9105 21.6464 12.0293 21.839 12.1817C22.0315 12.334 22.1923 12.5168 22.312 12.7197C22.4317 12.9226 22.5081 13.1415 22.5368 13.3641C22.5655 13.5866 22.546 13.8083 22.4792 14.0166C22.4054 14.2448 22.2765 14.4516 22.1015 14.6228C22.5331 14.3883 22.8383 14.009 22.9557 13.5608C23.0163 13.3275 23.0242 13.0824 22.979 12.8395C22.9337 12.5966 22.8363 12.3607 22.6922 12.1452C22.5481 11.9298 22.3601 11.739 22.139 11.5837C21.9179 11.4285 21.668 11.3118 21.4036 11.2404C21.2216 11.1912 21.0348 11.164 20.8483 11.1596Z" fill="#005493"/>
</svg>
