<svg width="1499" height="982" viewBox="0 0 1499 982" fill="none" xmlns="http://www.w3.org/2000/svg">
<line x1="955.5" y1="904" x2="955.5" y2="158" stroke="#FAFAFA"/>
<line y1="-0.5" x2="354" y2="-0.5" transform="matrix(-4.37114e-08 -1 -1 4.37114e-08 1059 1184)" stroke="#FAFAFA"/>
<line y1="-0.5" x2="746" y2="-0.5" transform="matrix(-4.37114e-08 -1 -1 4.37114e-08 1100 1340)" stroke="#FAFAFA"/>
<line y1="-0.5" x2="746" y2="-0.5" transform="matrix(-4.37114e-08 -1 -1 4.37114e-08 1441 1383)" stroke="#FAFAFA"/>
<line y1="-0.5" x2="746" y2="-0.5" transform="matrix(-4.37114e-08 -1 -1 4.37114e-08 1473 530)" stroke="#FAFAFA"/>
<line y1="-0.5" x2="531" y2="-0.5" transform="matrix(-4.37114e-08 -1 -1 4.37114e-08 1003 1275)" stroke="#FAFAFA"/>
<circle cx="15" cy="15" r="15" transform="matrix(1 0 0 -1 1044 959)" fill="#002642"/>
<circle cx="15" cy="15" r="15" transform="matrix(1 0 0 -1 1085 840)" fill="#FF8C7F"/>
<circle cx="15" cy="15" r="15" transform="matrix(1 0 0 -1 1426 977)" fill="#002642"/>
<circle cx="15" cy="15" r="15" transform="matrix(1 0 0 -1 1458 124)" fill="#FAFAFA"/>
<circle cx="15" cy="15" r="15" transform="matrix(1 0 0 -1 988 855)" fill="#EDB183"/>
<line x1="1092.5" y1="247" x2="1092.5" y2="-107" stroke="#FAFAFA"/>
<line x1="1143.5" y1="424" x2="1143.5" y2="-107" stroke="#FAFAFA"/>
<line x1="1187.5" y1="247" x2="1187.5" y2="-284" stroke="#FAFAFA"/>
<line x1="1025.5" y1="317" x2="1025.5" y2="-429" stroke="#FAFAFA"/>
<line x1="1092.5" y1="153" x2="1092.5" y2="-593" stroke="#FAFAFA"/>
<line x1="882.5" y1="317" x2="882.5" y2="-429" stroke="#FAFAFA"/>
<circle cx="1093" cy="16" r="15" transform="rotate(180 1093 16)" fill="#2D8575"/>
<circle cx="956" cy="320" r="15" transform="rotate(180 956 320)" fill="#2D8575"/>
<circle cx="1093" cy="80" r="15" transform="rotate(180 1093 80)" fill="#002642"/>
<circle cx="883" cy="257" r="15" transform="rotate(180 883 257)" fill="#8895B3"/>
<circle cx="1140" cy="207" r="15" transform="rotate(180 1140 207)" fill="#FAFAFA"/>
<circle cx="1026" cy="157" r="15" transform="rotate(180 1026 157)" fill="#FAFAFA"/>
<circle cx="1188" cy="66" r="15" transform="rotate(180 1188 66)" fill="#EDB183"/>
<line x1="1243.5" y1="-5" x2="1243.5" y2="349" stroke="#FAFAFA"/>
<line x1="1382.5" y1="637" x2="1382.5" y2="991" stroke="#FAFAFA"/>
<line x1="1371.5" y1="1" x2="1371.5" y2="355" stroke="#FAFAFA"/>
<line x1="1274.5" y1="673" x2="1274.5" y2="1027" stroke="#FAFAFA"/>
<line x1="1223.5" y1="496" x2="1223.5" y2="1027" stroke="#FAFAFA"/>
<line x1="1284.5" y1="-161" x2="1284.5" y2="585" stroke="#FAFAFA"/>
<line x1="1323.5" y1="-161" x2="1323.5" y2="585" stroke="#FAFAFA"/>
<line x1="1411.5" y1="16" x2="1411.5" y2="762" stroke="#FAFAFA"/>
<line x1="1179.5" y1="673" x2="1179.5" y2="1204" stroke="#FAFAFA"/>
<line x1="1187.5" y1="-96" x2="1187.5" y2="435" stroke="#FAFAFA"/>
<line x1="1341.5" y1="603" x2="1341.5" y2="1349" stroke="#FAFAFA"/>
<line x1="1274.5" y1="767" x2="1274.5" y2="1513" stroke="#FAFAFA"/>
<line x1="1484.5" y1="603" x2="1484.5" y2="1349" stroke="#FAFAFA"/>
<circle cx="1274" cy="904" r="15" fill="#2D8575"/>
<circle cx="1411" cy="600" r="15" fill="#2D8575"/>
<circle cx="1243" cy="235" r="15" fill="#2D8575"/>
<circle cx="1382" cy="877" r="15" fill="#2D8575"/>
<circle cx="1371" cy="241" r="15" fill="#002642"/>
<circle cx="1284" cy="404" r="15" fill="#002642"/>
<circle cx="1323" cy="260" r="15" fill="#FF8C7F"/>
<circle cx="1274" cy="840" r="15" fill="#FF8C7F"/>
<circle cx="1484" cy="663" r="15" fill="#FAFAFA"/>
<circle cx="1227" cy="713" r="15" fill="#FAFAFA"/>
<circle cx="1341" cy="763" r="15" fill="#FAFAFA"/>
<circle cx="1179" cy="854" r="15" fill="#EDB183"/>
<circle cx="1187" cy="429" r="15" fill="#EDB183"/>
<circle cx="1411" cy="410" r="15" fill="#EDB183"/>
<circle cx="15" cy="15" r="15" transform="matrix(1 0 0 -1 1212 784)" fill="#002642"/>
<path d="M131.771 816.558L131.785 816.567L131.792 816.571C132.259 816.855 140.399 821.799 148.513 832.048C159.911 846.5 161.986 860.844 154.887 873.674C148.741 884.749 139.042 888.505 128.378 888.505C113.461 888.505 96.8942 881.125 86.2011 876.362C85.9166 876.235 85.6363 876.111 85.3602 875.988C74.1879 870.877 64.8781 870.455 56.074 870.055L55.9555 870.049L55.9521 870.049L55.692 870.037C47.5384 869.639 39.2713 869.236 30.3554 865.222C9.51395 855.825 5.88522 837.661 2.59351 821.102C2.59351 821.101 2.59338 821.101 2.59338 821.101L1.61258 821.296C1.28244 819.63 0.973602 817.919 0.662842 816.197C-0.492096 809.799 -1.67358 803.253 -4.0741 798.326L131.771 816.558ZM131.771 816.558L131.757 816.549M131.771 816.558L131.757 816.549M131.757 816.549C129.903 815.337 127.407 815.832 126.196 817.64C124.983 819.451 125.463 821.906 127.309 823.139L127.315 823.144M131.757 816.549L127.315 823.144M127.315 823.144L127.322 823.148M127.315 823.144L127.322 823.148M127.322 823.148C127.32 823.147 127.324 823.15 127.35 823.167L127.438 823.226C127.512 823.276 127.616 823.347 127.747 823.438C128.01 823.619 128.382 823.88 128.843 824.215C129.765 824.885 131.045 825.855 132.529 827.085C135.494 829.542 139.289 833.054 142.668 837.318C149.397 845.811 154.667 857.571 147.836 869.895L147.836 869.895M127.322 823.148L147.836 869.895M147.836 869.895C145.464 874.171 142.315 877.086 138.449 878.805C134.599 880.517 130.113 881.011 125.106 880.579C115.123 879.719 102.816 875.153 88.7658 868.748L88.7656 868.748M147.836 869.895L88.7656 868.748M88.7656 868.748C76.1764 863.006 65.7502 862.521 56.4472 862.089L56.3344 862.083L56.3342 862.083L56.1326 862.074C48.2797 861.711 41.2779 861.388 33.6983 857.984L33.6977 857.984M88.7656 868.748L33.6977 857.984M33.6977 857.984C16.5697 850.281 13.5674 835.126 10.5108 819.698L10.482 819.552L33.6977 857.984ZM132.704 983.657L132.702 983.658C106.641 993.292 79.2831 1007.02 72.8015 1010.27C72.2726 1010.54 71.8827 1010.73 71.6439 1010.85C70.1209 1011.6 68.2466 1012.26 66.6702 1012.55C65.8772 1012.69 65.2178 1012.73 64.7394 1012.67C64.2642 1012.61 64.1514 1012.48 64.1385 1012.46C64.0181 1012.25 63.9654 1011.88 64.2361 1011.22C64.5071 1010.56 65.0403 1009.78 65.7809 1008.96C67.2568 1007.32 69.3722 1005.7 71.1713 1004.74C71.1717 1004.74 71.1722 1004.74 71.1727 1004.74L70.6989 1003.85C71.2011 1003.59 72.1023 1003.07 73.3562 1002.36C81.4832 997.72 104.422 984.632 129.495 975.334L132.704 983.657ZM132.704 983.657C137.902 981.744 143.301 979.967 149.02 978.095L149.154 978.051C171.991 970.576 200.296 961.312 232.511 935.17L232.511 935.17C275.592 900.229 280.599 867.501 279.836 851.268C279.205 838.209 274.067 828.328 268.507 817.646C266.174 813.17 263.752 808.521 261.635 803.497C258.514 796.114 257.555 786.758 257.364 779.293C257.179 772.096 257.707 766.531 257.77 765.961L257.77 765.961C257.985 763.811 256.398 761.851 254.195 761.605C251.958 761.393 250.019 762.979 249.774 765.13C249.721 765.652 249.097 771.873 249.356 780.034C249.617 788.246 250.771 798.322 254.236 806.528C256.424 811.69 258.836 816.352 261.179 820.884L261.379 821.27L261.38 821.271L261.525 821.552C266.698 831.505 271.3 840.362 271.814 851.643C272.37 863.783 269.096 895.255 227.408 929.067L226.778 928.29L227.408 929.067C196.253 954.331 169.738 963.003 146.459 970.6C140.636 972.507 135.169 974.307 129.841 976.272L132.704 983.657Z" stroke="#E8E8E8" stroke-width="2"/>
<path d="M152.279 928.792L152.28 928.792C195.453 921.241 221.499 888.917 215.972 850.312C210.135 809.689 182.234 778.739 181.062 777.462L181.06 777.459C179.606 775.863 177.118 775.756 175.531 777.22C173.942 778.686 173.834 781.2 175.293 782.802L175.298 782.808L175.303 782.813L175.305 782.815L175.311 782.822L175.332 782.846L175.404 782.927C175.465 782.996 175.55 783.093 175.659 783.217C175.877 783.467 176.187 783.827 176.578 784.293C177.36 785.225 178.466 786.579 179.801 788.312C182.471 791.778 186.061 796.764 189.812 802.928C197.307 815.246 205.479 832.319 208.214 851.4L208.214 851.4C211.083 871.442 204.916 887.44 193.919 899.125C182.947 910.784 167.213 918.106 150.963 920.961L150.963 920.961C121.48 926.116 95.1513 910.922 76.1931 899.981L76.1753 899.971L76.1744 899.97C71.9485 897.526 68.0191 895.267 64.5267 893.509C56.0503 889.244 48.2585 888.155 40.6131 887.118L40.6107 887.118C39.5646 886.973 38.5094 886.837 37.4444 886.7C28.2149 885.512 18.2513 884.23 7.13431 876.374L7.13321 876.373C-8.18091 865.52 -14.384 848.52 -14.4754 848.244L-14.4808 848.228L-14.4856 848.211C-14.9101 846.765 -15.4973 845.211 -16.2419 844.139C-16.6126 843.605 -16.9769 843.258 -17.3147 843.078C-17.6189 842.916 -17.927 842.873 -18.3042 842.994C-18.5724 843.081 -18.8476 843.32 -19.0784 843.882C-19.3111 844.449 -19.444 845.226 -19.4772 846.131C-19.5433 847.936 -19.2044 849.967 -18.8228 851.168C-18.7527 851.381 -18.6736 851.634 -18.5831 851.923C-17.1365 856.542 -12.7876 870.428 3.73598 882.133C17.616 891.961 29.1521 893.561 39.4689 894.992L39.5555 895.004L39.5566 895.004L39.7385 895.029C46.8394 896.022 53.7546 896.988 61.0387 900.653C64.1432 902.215 67.8091 904.316 71.6421 906.512C71.8674 906.641 72.0934 906.77 72.3198 906.9L72.3228 906.902C88.8028 916.417 112.344 929.947 139.058 929.947C143.389 929.947 147.784 929.584 152.279 928.792Z" stroke="#E8E8E8" stroke-width="2"/>
<path opacity="0.7" d="M138.355 812.29C139.305 812.618 140.44 813.086 141.731 813.754C145.723 815.821 151.177 819.792 157.232 827.408L157.232 827.408C170.064 843.565 167.833 862.589 155.787 876.871C149.128 884.767 141.06 889.582 132.463 890.377C123.849 891.174 114.876 887.919 106.461 880.015L106.461 880.015C100.653 874.557 92.8573 868.653 84.6815 865.198C76.4983 861.74 68.1105 860.801 60.9251 864.951C53.6834 869.15 49.914 876.857 47.964 883.669C46.9937 887.059 46.4868 890.184 46.2229 892.462C46.091 893.6 46.0201 894.524 45.9822 895.16C45.9633 895.478 45.9526 895.725 45.9467 895.89C45.9437 895.972 45.942 896.034 45.9409 896.075L45.9399 896.12L45.9397 896.13L45.9397 896.132V896.132V896.132L45.9195 897.513L44.6145 897.063L44.6143 897.062L44.614 897.062L44.6138 897.062L44.6096 897.061L44.5872 897.053C44.5664 897.046 44.5338 897.036 44.4899 897.022C44.4023 896.994 44.27 896.952 44.0974 896.902C43.7522 896.8 43.2468 896.661 42.6173 896.516C41.3558 896.224 39.6084 895.908 37.6592 895.806C33.7232 895.6 29.1779 896.273 26.0304 899.508C19.5498 906.171 18.0677 919.208 22.8257 932.501C25.2752 939.345 26.868 948.428 25.1388 956.859C23.397 965.351 18.2815 973.154 7.43259 977.247C-4.87119 981.899 -14.7564 978.404 -21.8042 973.837C-25.3167 971.561 -28.1353 969.013 -30.2027 967.084C-30.4296 966.872 -30.6458 966.67 -30.8519 966.477C-31.5978 965.777 -32.2112 965.202 -32.7164 964.776C-32.9207 964.603 -33.0917 964.469 -33.2332 964.368C-33.3073 964.55 -33.3882 964.79 -33.4696 965.093C-33.7216 966.032 -33.937 967.414 -34.0252 969.13C-34.2014 972.555 -33.8653 977.199 -32.395 982.09C-29.4675 991.828 -22.0502 1002.56 -5.07864 1006.67C4.03519 1008.88 11.8356 1007.57 17.3622 1005.7C20.1262 1004.77 22.3177 1003.69 23.8132 1002.86C24.5607 1002.44 25.1333 1002.09 25.5156 1001.84C25.7067 1001.71 25.8502 1001.61 25.944 1001.55C25.9909 1001.51 26.0254 1001.49 26.0473 1001.47L26.0705 1001.46L26.0746 1001.45L26.075 1001.45L26.0751 1001.45L26.0754 1001.45L26.7592 1000.94L27.3683 1001.54L27.3688 1001.54L27.3694 1001.54L27.3701 1001.54L27.3804 1001.55C27.3918 1001.56 27.4109 1001.58 27.4379 1001.6C27.4918 1001.65 27.5768 1001.73 27.6922 1001.82C27.923 1002.01 28.2751 1002.28 28.7434 1002.6C29.6807 1003.23 31.0785 1004.02 32.8983 1004.64C36.5193 1005.87 41.8646 1006.45 48.6722 1003.69L48.6728 1003.69C61.7532 998.389 69.8432 988.904 72.86 975.428C73.4927 972.587 73.9882 969.744 74.4715 966.971C74.6845 965.749 74.8951 964.541 75.1141 963.352C75.823 959.504 76.6179 955.873 77.8659 952.876C79.117 949.872 80.869 947.393 83.559 945.993C86.2519 944.591 89.7013 944.364 94.1452 945.472C96.4061 946.035 98.7751 947.323 101.266 949.041C103.765 950.765 106.453 952.971 109.351 955.427C110.239 956.18 111.148 956.957 112.079 957.753C117.243 962.17 123.083 967.165 129.828 971.782C145.709 982.65 166.512 991.355 194.733 984.949C224.835 978.116 238.335 962.61 244.491 948.495C247.581 941.412 248.838 934.64 249.383 929.419C249.655 926.81 249.75 924.591 249.808 922.909C249.815 922.701 249.822 922.499 249.829 922.306C249.848 921.724 249.865 921.213 249.887 920.793C249.914 920.276 249.952 919.758 250.058 919.409C250.293 918.635 250.932 918.095 251.549 917.688C252.194 917.263 253.037 916.844 253.963 916.396C254.107 916.327 254.254 916.256 254.405 916.183C256.22 915.308 258.473 914.221 260.922 912.568C266.188 909.01 272.414 902.784 276.551 890.411L276.552 890.411C280.366 879.013 280.637 869.995 278.807 862.435C276.975 854.866 273.014 848.664 268.202 842.929C265.795 840.06 263.185 837.319 260.527 834.581C260.055 834.094 259.581 833.607 259.106 833.12C256.918 830.873 254.717 828.613 252.617 826.295C247.501 820.649 242.896 814.57 240.293 807.175C235.229 792.851 236.344 780.546 236.956 773.784C237.025 773.021 237.088 772.329 237.135 771.712C235.07 772.5 233.315 773.805 231.582 775.557C229.842 777.315 228.171 779.47 226.237 781.965C225.814 782.511 225.378 783.073 224.927 783.651C219.917 790.058 213.191 798.03 200.599 805.636C191.982 810.844 181.655 811.161 172.718 810.362C168.948 810.025 165.386 809.484 162.284 809.014C161.702 808.925 161.137 808.839 160.589 808.758C157.051 808.231 154.383 807.907 152.749 808.132C149.236 808.617 144.925 809.936 141.454 811.153C140.3 811.558 139.247 811.949 138.355 812.29Z" stroke="#E8E8E8" stroke-width="2"/>
<path d="M138.355 812.29C139.305 812.618 140.44 813.086 141.731 813.754C145.723 815.821 151.177 819.792 157.232 827.408L157.232 827.408C170.064 843.565 167.833 862.589 155.787 876.871C149.128 884.767 141.06 889.582 132.463 890.377C123.849 891.174 114.876 887.919 106.461 880.015L106.461 880.015C100.653 874.557 92.8573 868.653 84.6815 865.198C76.4983 861.74 68.1105 860.801 60.9251 864.951C53.6834 869.15 49.914 876.857 47.964 883.669C46.9937 887.059 46.4868 890.184 46.2229 892.462C46.091 893.6 46.0201 894.524 45.9822 895.16C45.9633 895.478 45.9526 895.725 45.9467 895.89C45.9437 895.972 45.942 896.034 45.9409 896.075L45.9399 896.12L45.9397 896.13L45.9397 896.132V896.132V896.132L45.9195 897.513L44.6145 897.063L44.6143 897.062L44.614 897.062L44.6138 897.062L44.6096 897.061L44.5872 897.053C44.5664 897.046 44.5338 897.036 44.4899 897.022C44.4023 896.994 44.27 896.952 44.0974 896.902C43.7522 896.8 43.2468 896.661 42.6173 896.516C41.3558 896.224 39.6084 895.908 37.6592 895.806C33.7232 895.6 29.1779 896.273 26.0304 899.508C19.5498 906.171 18.0677 919.208 22.8257 932.501C25.2752 939.345 26.868 948.428 25.1388 956.859C23.397 965.351 18.2815 973.154 7.43259 977.247C-4.87119 981.899 -14.7564 978.404 -21.8042 973.837C-25.3167 971.561 -28.1353 969.013 -30.2027 967.084C-30.4296 966.872 -30.6458 966.67 -30.8519 966.477C-31.5978 965.777 -32.2112 965.202 -32.7164 964.776C-32.9207 964.603 -33.0917 964.469 -33.2332 964.368C-33.3073 964.55 -33.3882 964.79 -33.4696 965.093C-33.7216 966.032 -33.937 967.414 -34.0252 969.13C-34.2014 972.555 -33.8653 977.199 -32.395 982.09C-29.4675 991.828 -22.0502 1002.56 -5.07864 1006.67C4.03519 1008.88 11.8356 1007.57 17.3622 1005.7C20.1262 1004.77 22.3177 1003.69 23.8132 1002.86C24.5607 1002.44 25.1333 1002.09 25.5156 1001.84C25.7067 1001.71 25.8502 1001.61 25.944 1001.55C25.9909 1001.51 26.0254 1001.49 26.0473 1001.47L26.0705 1001.46L26.0746 1001.45L26.075 1001.45L26.0751 1001.45L26.0754 1001.45L26.7592 1000.94L27.3683 1001.54L27.3688 1001.54L27.3694 1001.54L27.3701 1001.54L27.3804 1001.55C27.3918 1001.56 27.4109 1001.58 27.4379 1001.6C27.4918 1001.65 27.5768 1001.73 27.6922 1001.82C27.923 1002.01 28.2751 1002.28 28.7434 1002.6C29.6807 1003.23 31.0785 1004.02 32.8983 1004.64C36.5193 1005.87 41.8646 1006.45 48.6722 1003.69L48.6728 1003.69C61.7532 998.389 69.8432 988.904 72.86 975.428C73.4927 972.587 73.9882 969.744 74.4715 966.971C74.6845 965.749 74.8951 964.541 75.1141 963.352C75.823 959.504 76.6179 955.873 77.8659 952.876C79.117 949.872 80.869 947.393 83.559 945.993C86.2519 944.591 89.7013 944.364 94.1452 945.472C96.4061 946.035 98.7751 947.323 101.266 949.041C103.765 950.765 106.453 952.971 109.351 955.427C110.239 956.18 111.148 956.957 112.079 957.753C117.243 962.17 123.083 967.165 129.828 971.782C145.709 982.65 166.512 991.355 194.733 984.949C224.835 978.116 238.335 962.61 244.491 948.495C247.581 941.412 248.838 934.64 249.383 929.419C249.655 926.81 249.75 924.591 249.808 922.909C249.815 922.701 249.822 922.499 249.829 922.306C249.848 921.724 249.865 921.213 249.887 920.793C249.914 920.276 249.952 919.758 250.058 919.409C250.293 918.635 250.932 918.095 251.549 917.688C252.194 917.263 253.037 916.844 253.963 916.396C254.107 916.327 254.254 916.256 254.405 916.183C256.22 915.308 258.473 914.221 260.922 912.568C266.188 909.01 272.414 902.784 276.551 890.411L276.552 890.411C280.366 879.013 280.637 869.995 278.807 862.435C276.975 854.866 273.014 848.664 268.202 842.929C265.795 840.06 263.185 837.319 260.527 834.581C260.055 834.094 259.581 833.607 259.106 833.12C256.918 830.873 254.717 828.613 252.617 826.295C247.501 820.649 242.896 814.57 240.293 807.175C235.229 792.851 236.344 780.546 236.956 773.784C237.025 773.021 237.088 772.329 237.135 771.712C235.07 772.5 233.315 773.805 231.582 775.557C229.842 777.315 228.171 779.47 226.237 781.965C225.814 782.511 225.378 783.073 224.927 783.651C219.917 790.058 213.191 798.03 200.599 805.636C191.982 810.844 181.655 811.161 172.718 810.362C168.948 810.025 165.386 809.484 162.284 809.014C161.702 808.925 161.137 808.839 160.589 808.758C157.051 808.231 154.383 807.907 152.749 808.132C149.236 808.617 144.925 809.936 141.454 811.153C140.3 811.558 139.247 811.949 138.355 812.29Z" stroke="#E8E8E8" stroke-width="2"/>
<path d="M282.558 743.848L282.558 743.847C283.673 741.348 285.301 733.917 284.593 722.451C283.888 711.025 280.867 695.659 272.767 677.324C264.708 659.079 245.792 635.458 217.525 621.799C189.307 608.164 151.7 604.422 106.119 626.004C62.7509 646.545 47.0322 681.236 44.1985 714.394C41.3589 747.621 51.4734 779.255 59.7215 793.392C67.4893 806.689 74.7969 814.936 81.7941 820.022C88.7725 825.094 95.4931 827.059 102.167 827.708C103.114 827.797 104.345 827.623 105.846 827.186C107.338 826.753 109.031 826.082 110.877 825.235C114.572 823.539 118.785 821.187 123.09 818.76C123.354 818.612 123.618 818.463 123.883 818.313C127.914 816.04 131.996 813.738 135.714 811.933C139.643 810.026 143.311 808.598 146.158 808.414C148.861 808.239 152.704 808.418 157.09 808.656C157.614 808.684 158.147 808.714 158.686 808.743C162.694 808.964 167.119 809.207 171.626 809.284C181.915 809.458 192.367 808.75 199.082 805.097C205.868 801.395 213.827 793.253 220.949 785.594C221.962 784.504 222.958 783.425 223.93 782.372C226.346 779.753 228.612 777.298 230.616 775.255C232.023 773.821 233.32 772.572 234.468 771.599C235.596 770.643 236.654 769.889 237.577 769.524C238.415 769.192 239.617 768.875 241.03 768.538C241.727 768.371 242.522 768.19 243.374 767.995C244.226 767.8 245.135 767.592 246.064 767.372C249.859 766.476 254.417 765.291 259.071 763.526C268.402 759.986 277.957 754.172 282.558 743.848Z" stroke="#E8E8E8" stroke-width="2"/>
<path d="M200.338 836.201L200.338 836.203C200.489 838.295 201.255 839.753 202.313 840.668C203.376 841.586 204.833 842.04 206.519 841.936C208.213 841.832 209.656 841.204 210.644 840.178C211.621 839.164 212.225 837.686 212.121 835.725C212.016 833.74 211.282 832.207 210.192 831.198C209.105 830.19 207.594 829.64 205.805 829.743C204.072 829.847 202.65 830.501 201.698 831.559C200.751 832.612 200.188 834.155 200.338 836.201ZM249.384 850.272L249.384 850.277C249.491 852.273 250.132 853.599 251.058 854.445C251.993 855.299 253.344 855.777 255.082 855.823C257.113 855.868 258.312 855.218 259.067 854.316C259.862 853.366 260.278 852.001 260.436 850.436C260.563 849.022 260.169 847.613 259.282 846.517C258.403 845.431 256.99 844.593 254.965 844.399C253.078 844.226 251.669 844.863 250.741 845.902C249.795 846.961 249.28 848.519 249.384 850.272ZM158.627 902.174L158.627 902.174C160.234 902.16 161.361 901.531 162.139 900.612C162.939 899.668 163.409 898.364 163.546 896.991C163.658 895.698 163.299 894.316 162.488 893.27C161.696 892.25 160.442 891.505 158.628 891.491C156.718 891.476 155.422 892.083 154.616 892.976C153.8 893.88 153.373 895.204 153.462 896.828L153.462 896.833C153.553 898.668 154.142 899.993 155.004 900.851C155.861 901.704 157.082 902.189 158.627 902.174ZM205.275 939.004L205.275 939.005C205.441 941.093 206.227 942.552 207.313 943.47C208.407 944.394 209.9 944.85 211.625 944.746C213.345 944.642 214.804 943.993 215.802 942.942C216.792 941.902 217.396 940.396 217.293 938.434C217.188 936.451 216.455 934.949 215.363 933.967C214.269 932.985 212.731 932.448 210.874 932.553C209.084 932.658 207.619 933.317 206.645 934.377C205.679 935.428 205.111 936.965 205.275 939.004ZM165.841 958.355L165.834 958.355C164.319 958.443 163.088 959.013 162.269 959.921C161.457 960.823 160.969 962.147 161.101 963.905C161.251 965.753 161.919 967.011 162.822 967.79C163.729 968.573 164.976 968.963 166.451 968.875C167.922 968.788 169.165 968.237 170.012 967.35C170.849 966.473 171.371 965.194 171.283 963.499C171.195 961.782 170.56 960.458 169.625 959.592C168.693 958.728 167.393 958.254 165.841 958.355ZM110.529 912.907L110.525 912.906C107.023 911.935 104.019 914.005 103.295 917.374L103.293 917.384C102.847 919.357 103.04 920.985 103.662 922.176C104.275 923.347 105.354 924.197 106.912 924.556L106.916 924.556C108.643 924.961 110.002 924.605 111.067 923.855C112.162 923.084 113.01 921.848 113.562 920.418C114.073 919.093 114.102 917.39 113.578 915.917C113.061 914.463 112.047 913.322 110.529 912.907ZM77.8947 883.864L77.8866 884.864C77.8866 884.864 77.8866 884.864 77.8865 884.864L77.8947 883.864ZM224.265 885.021C224.296 882.88 223.795 881.221 222.868 880.088C221.959 878.976 220.537 878.243 218.444 878.136C216.51 878.047 214.887 878.644 213.754 879.682C212.625 880.716 211.918 882.249 211.918 884.165C211.918 886.17 212.455 887.771 213.377 888.869C214.284 889.949 215.639 890.637 217.489 890.696C219.419 890.757 221.107 890.277 222.296 889.347C223.459 888.438 224.235 887.033 224.265 885.021Z" stroke="#E8E8E8" stroke-width="2"/>
<path d="M241.863 762.476L241.126 761.8L241.389 761.514L241.775 761.48C245.061 761.189 258.264 756.558 260.254 736.432C261.25 726.362 258.553 718.582 253.48 712.504C248.381 706.395 240.825 701.937 232.007 698.665C218.643 693.714 208.572 686.935 196.628 677.907C185.762 669.708 164.195 656.536 133.38 670.066C115.679 677.842 107.496 688.315 103.521 698.255C100.417 706.017 99.8618 713.441 99.4266 719.262C99.2994 720.963 99.1824 722.528 99.015 723.923L99.0149 723.924C97.1949 739.074 93.6124 746.227 88.148 757.138C87.4091 758.613 86.6359 760.157 85.828 761.799C82.4962 768.582 81.8421 777.024 83.4049 785.033C84.968 793.043 88.7257 800.501 94.0725 805.34L94.0735 805.34C100.43 811.109 109.268 813 117.093 813.121C120.992 813.182 124.598 812.802 127.452 812.266C130.35 811.721 132.346 811.039 133.116 810.561C135.084 809.325 138.07 808.127 141.245 807.159C144.434 806.187 147.893 805.424 150.844 805.087C152.391 804.911 155.598 805.067 159.518 805.282C159.993 805.308 160.48 805.335 160.979 805.363C164.65 805.567 168.911 805.803 173.245 805.912C178.17 806.035 183.156 805.99 187.445 805.549C191.781 805.102 195.226 804.264 197.204 802.919C201.519 799.987 208.323 793.563 214.58 787.464C216.087 785.994 217.567 784.539 218.966 783.164C220.446 781.709 221.835 780.344 223.07 779.144C225.457 776.825 227.385 775.011 228.39 774.291L228.394 774.288C230.163 773.036 233.32 769.952 236.095 767.105C237.469 765.697 238.727 764.37 239.642 763.395C240.1 762.908 240.471 762.508 240.728 762.231C240.857 762.093 240.956 761.985 241.024 761.911L241.101 761.828L241.12 761.807L241.125 761.802L241.126 761.801L241.126 761.8L241.863 762.476Z" stroke="#E8E8E8" stroke-width="2"/>
<path d="M232.63 763.249L232.63 763.249C225.213 767.717 222.171 772.554 218.954 777.671C218.668 778.125 218.38 778.582 218.088 779.041C214.467 784.736 210.221 790.594 199.45 796.104C188.66 801.666 180.113 801.471 171.652 800.637C170.617 800.534 169.584 800.423 168.551 800.312C161.157 799.515 153.69 798.71 144.434 801.166C139.254 802.547 134.713 805.696 130.248 809.137C129.509 809.706 128.772 810.284 128.033 810.863C124.364 813.739 120.673 816.632 116.773 818.483L116.772 818.484C110.15 821.616 103.957 822.179 99.3649 822.297C98.369 822.323 97.4768 822.328 96.6763 822.333C95.5842 822.339 94.6625 822.344 93.8799 822.399C93.2141 822.446 92.7724 822.524 92.4977 822.627C92.4234 822.655 92.3743 822.679 92.3426 822.698C92.3627 822.743 92.4017 822.813 92.4762 822.912C92.6895 823.194 93.0915 823.559 93.7229 823.97C94.9747 824.784 96.9299 825.649 99.4333 826.345C104.429 827.734 111.443 828.406 119.016 826.781L119.018 826.78C123.914 825.741 127.155 824.439 129.535 823.037C131.912 821.637 133.478 820.111 135.026 818.533C135.145 818.411 135.264 818.289 135.384 818.167C136.814 816.702 138.304 815.177 140.412 813.796C142.707 812.292 145.695 810.982 150.128 809.991C153.557 809.224 157.051 809.231 160.646 809.528C162.787 809.705 165.025 809.992 167.316 810.286C168.828 810.48 170.364 810.677 171.911 810.847C179.776 811.714 188.533 811.978 198.887 808.193L198.888 808.193C210.616 803.916 216.62 798.425 220.993 792.869C222.554 790.886 223.897 788.909 225.235 786.941C225.797 786.114 226.358 785.288 226.933 784.464C228.862 781.704 230.921 779.018 233.617 776.604C236.297 774.205 238.608 772.775 240.875 771.841C243.129 770.913 245.299 770.494 247.625 770.077C247.792 770.047 247.96 770.017 248.13 769.986C252.647 769.18 258.113 768.204 266.903 763.551C275.892 758.793 280.899 751.168 283.198 744.546C284.349 741.231 284.808 738.203 284.763 735.954C284.74 734.825 284.591 733.937 284.37 733.321C284.14 732.679 283.9 732.509 283.822 732.476C283.464 732.341 283.318 732.382 283.253 732.408C283.153 732.449 282.977 732.571 282.714 732.954C282.453 733.335 282.181 733.858 281.834 734.562C281.761 734.711 281.684 734.867 281.605 735.029C281.32 735.613 280.995 736.28 280.616 736.997C278.647 740.723 275.196 745.889 267.188 750.881L267.187 750.881C262.002 754.112 257.209 755.101 252.21 756.131C251.842 756.207 251.474 756.283 251.103 756.361C245.708 757.486 239.895 758.869 232.63 763.249ZM92.2902 822.738C92.2907 822.739 92.2944 822.736 92.299 822.728C92.2921 822.734 92.2898 822.738 92.2902 822.738ZM92.3224 822.639C92.3223 822.635 92.3218 822.632 92.3216 822.632C92.3214 822.632 92.3215 822.635 92.3224 822.639Z" stroke="#E8E8E8" stroke-width="2"/>
<path d="M169.981 629.801L169.982 629.801C171.797 629.907 174.182 629.993 176.196 629.311C177.184 628.977 178.042 628.47 178.697 627.721C179.346 626.979 179.847 625.94 180.03 624.451C180.348 621.772 179.386 619.729 177.693 618.268C175.964 616.776 173.428 615.862 170.632 615.645L170.626 615.644C167.539 615.388 165.106 615.73 163.407 616.656C161.773 617.547 160.716 619.033 160.439 621.38C160.246 623.02 160.506 624.307 161.019 625.328C161.535 626.355 162.337 627.174 163.32 627.822C165.309 629.135 167.945 629.683 169.981 629.801ZM232.748 641.859L232.748 641.859C212.211 623.705 200.992 623.322 197.478 623.734L197.478 623.734C195.858 623.924 194.189 624.628 193.054 625.802C191.955 626.94 191.299 628.573 191.73 630.823C192.157 633.059 193.406 634.467 195.025 635.521C196.338 636.375 197.823 636.958 199.311 637.542C199.727 637.705 200.144 637.868 200.557 638.038C200.907 638.182 201.289 638.33 201.706 638.491C203.366 639.135 205.579 639.992 208.575 641.661C212.325 643.75 217.306 647.108 224.138 652.946C229.427 657.451 234.466 663.557 238.719 668.968C239.593 670.079 240.43 671.158 241.23 672.188C242.392 673.683 243.475 675.078 244.478 676.329C246.179 678.45 247.573 680.057 248.627 680.955C249.05 681.312 249.762 681.606 250.622 681.686C251.471 681.764 252.382 681.623 253.179 681.208C254.666 680.434 256.084 678.503 255.439 674.23C254.785 669.895 252.264 664.572 248.288 658.909C244.324 653.264 238.969 647.357 232.748 641.859Z" stroke="#E8E8E8" stroke-width="2"/>
<path d="M228.875 834.016L228.874 834.013C224.108 818.852 222.68 806.916 222.453 798.728C222.339 794.634 222.526 791.479 222.745 789.327C222.855 788.251 222.973 787.426 223.065 786.861C223.111 786.578 223.151 786.36 223.18 786.208C223.203 786.088 223.235 785.935 223.228 785.973L223.231 785.955L223.236 785.937C223.742 783.794 222.432 781.63 220.342 781.088C220.005 781.008 219.558 781.07 218.996 781.369C218.434 781.668 217.839 782.164 217.279 782.794C216.136 784.077 215.327 785.694 215.193 786.794L215.193 786.796C215.152 787.125 215.086 787.527 215.006 788.011C214.642 790.224 213.995 794.146 214.248 800.578C214.555 808.421 216.207 819.982 221.405 836.488C225.259 848.705 231.621 860.004 237.88 871.034L237.881 871.036L237.934 871.129C245.53 884.584 253.018 897.848 255.753 912.546C258.507 927.344 256.437 943.52 245.087 962.802C219.301 1006.63 177.584 1001.67 170.045 1000.78C169.561 1000.72 169.219 1000.68 169.029 1000.67C168.796 1000.66 168.543 1000.64 168.273 1000.63C166.907 1000.55 165.13 1000.45 163.533 1000.58C162.577 1000.67 161.777 1000.83 161.211 1001.09C160.658 1001.34 160.468 1001.61 160.416 1001.86L160.415 1001.87C160.242 1002.7 160.663 1003.62 161.692 1004.51C162.69 1005.38 164.064 1006.03 165.232 1006.29C165.272 1006.29 165.299 1006.3 165.304 1006.3L165.305 1006.3C165.34 1006.31 165.374 1006.32 165.399 1006.33C165.45 1006.34 165.517 1006.36 165.585 1006.38C165.727 1006.42 165.927 1006.48 166.188 1006.55C166.711 1006.69 167.49 1006.88 168.541 1007.07C170.643 1007.44 173.843 1007.83 178.256 1007.83C197.595 1007.83 231.758 1002.73 252.508 967.498C265.127 946.067 267.127 928.031 264.042 911.865C260.985 895.849 252.93 881.602 245.002 867.578L244.685 867.018C238.443 855.984 232.503 845.452 228.875 834.016Z" stroke="#E8E8E8" stroke-width="2"/>
<path d="M197.084 865.171C194.448 829.066 173.371 807.62 172.349 806.581L172.34 806.571C172.339 806.571 172.339 806.57 172.338 806.57C171.974 806.203 171.539 805.91 171.057 805.707L171.445 804.785L171.057 805.707C170.575 805.505 170.056 805.398 169.53 805.393C169.004 805.388 168.483 805.486 167.996 805.68C167.51 805.874 167.069 806.16 166.698 806.521L166.001 805.804L166.698 806.521C166.327 806.881 166.033 807.31 165.833 807.781C165.633 808.251 165.53 808.756 165.53 809.265C165.53 809.774 165.633 810.278 165.832 810.749L164.912 811.139L165.832 810.749C166.032 811.22 166.325 811.648 166.696 812.009L166.699 812.012C167.111 812.417 186.788 832.616 189.22 865.747L189.22 865.747C190.916 888.925 177.249 930.355 135.007 946.494L135.007 946.494C106.497 957.378 84.0317 957.186 65.0172 951.589C46.0453 946.005 30.5855 935.058 16.093 924.615L16.0928 924.615C4.9975 916.617 -5.34171 909.167 -15.8422 905.418C-30.3973 900.222 -41.2449 901.173 -48.5063 903.445C-55.3477 905.585 -59.0695 908.915 -59.7784 909.55C-59.8205 909.587 -59.852 909.615 -59.8728 909.633C-59.8739 909.634 -59.875 909.635 -59.876 909.636C-60.8797 910.495 -62.0179 911.648 -62.6865 912.779C-63.3803 913.952 -63.3633 914.695 -62.9161 915.199C-62.6488 915.501 -62.4025 915.586 -62.1287 915.59C-61.797 915.594 -61.3548 915.474 -60.762 915.19C-60.1769 914.91 -59.5451 914.523 -58.8341 914.081L-58.7453 914.026C-58.0766 913.61 -57.3469 913.157 -56.6014 912.774L-56.5972 912.772C-56.2603 912.601 -55.8971 912.408 -55.505 912.199C-53.0641 910.9 -49.502 909.005 -44.1702 908.18C-37.9767 907.223 -29.4599 907.708 -17.4421 912C-12.6503 913.704 -8.02495 916.548 -3.31943 919.874C-0.963608 921.539 1.42618 923.336 3.87329 925.18L4.22466 925.445C6.5639 927.208 8.95842 929.013 11.4464 930.802L11.4481 930.803C32.7188 946.172 57.5427 964.019 92.7082 964.019C106.276 964.019 121.394 961.356 138.471 954.831L138.471 954.831C179.62 939.124 199.395 896.875 197.084 865.171ZM197.084 865.171L198.082 865.098M197.084 865.171L198.082 865.098M198.082 865.098C200.421 897.191 180.436 939.883 138.828 955.766L173.05 805.868L173.062 805.88C174.132 806.968 195.419 828.63 198.082 865.098Z" stroke="#E8E8E8" stroke-width="2"/>
<path d="M235.651 49.419L237.936 48.6425L235.771 47.5747C227.933 43.71 215.1 41.6506 201.082 41.2807C187.124 40.9124 171.844 42.216 158.859 45.1781C140.151 39.3287 118.815 34.6736 101.286 33.1367C92.4877 32.3652 84.594 32.3743 78.4549 33.4378C72.3886 34.4888 67.703 36.6283 65.8312 40.4296C64.724 42.6778 64.6733 45.3416 65.3747 48.2202C66.0761 51.0987 67.5484 54.276 69.6061 57.6415C73.7227 64.3741 80.2862 72.0257 88.148 79.7969C103.793 95.2618 124.736 111.352 142.267 121.824C146.128 131.099 153.535 140.257 160.832 147.527C168.201 154.868 175.587 160.408 179.306 162.241L181.469 163.308L180.695 161.023C178.972 155.94 177.297 150.956 176.64 146.499C176.021 142.3 176.338 138.773 178.182 136.127C198.495 140.606 221.41 141.51 241.566 142.26C244.113 151.42 248.348 160.671 252.794 168.093C255.075 171.902 257.422 175.248 259.64 177.862C261.838 180.453 263.978 182.411 265.86 183.339L267.31 184.054L267.302 182.437C267.244 171.685 268.278 164.196 269.839 158.339C271.399 152.483 273.497 148.22 275.634 143.88C277.665 139.756 282.884 134.422 289.315 129.53C295.718 124.659 303.163 120.348 309.494 118.203L311.782 117.427L309.615 116.358C302.609 112.904 292.984 111.56 282.899 111.957C273.044 112.345 262.649 114.4 253.652 117.872C253.218 117.352 252.782 116.83 252.344 116.306C238.828 100.122 223.492 81.7577 206.698 68.4819C213.864 60.9773 225.983 52.7038 235.651 49.419ZM80.6927 143.759L78.5297 142.692L79.3041 144.977C82.5867 154.661 83.4283 169.288 81.8508 179.538C61.203 174.328 37.4303 173.355 16.4485 172.495C15.6591 172.463 14.8737 172.431 14.0926 172.399C11.3682 163.131 6.66321 153.63 0.964965 145.577C-4.86615 137.336 -11.7987 130.524 -18.8041 127.07L-20.9767 125.999L-20.1917 128.291C-18.0286 134.608 -16.9093 143.141 -16.8694 151.193C-16.8294 159.28 -17.8798 166.678 -19.9106 170.802C-22.0477 175.142 -24.1482 179.404 -27.8378 184.21C-31.5277 189.017 -36.8325 194.4 -45.3878 200.904L-46.6747 201.883L-45.2245 202.598C-43.3426 203.526 -40.4871 204.032 -37.0952 204.197C-33.672 204.364 -29.5908 204.188 -25.1825 203.678C-16.5919 202.683 -6.68162 200.408 2.12938 196.848C15.0041 212.385 29.682 230.017 45.6067 243.407C44.634 246.482 42.0316 248.883 38.3268 250.95C34.3948 253.144 29.4247 254.852 24.3471 256.581L22.0649 257.359L24.2279 258.425C27.9464 260.259 36.8369 262.744 47.1439 264.119C57.3503 265.481 69.1204 265.778 78.8223 263.191C97.802 270.722 123.312 277.537 145.099 280.529C156.047 282.033 166.109 282.579 173.953 281.744C177.873 281.326 181.288 280.559 183.996 279.362C186.705 278.164 188.785 276.501 189.892 274.253C191.764 270.452 190.604 265.432 187.739 259.98C184.841 254.463 180.037 248.196 174.064 241.687C162.165 228.718 145.476 214.625 129.448 203.334C123.887 191.22 115.611 178.299 106.815 167.448C97.9815 156.55 88.5305 147.623 80.6927 143.759ZM118.172 45.7719C120.233 46.7878 121.805 48.5822 122.544 50.7607C123.282 52.9392 123.126 55.3234 122.109 57.3886C121.092 59.4539 119.298 61.0304 117.121 61.7718C114.945 62.5131 112.565 62.3586 110.505 61.3426C108.445 60.3267 106.872 58.5324 106.134 56.3539C105.395 54.1754 105.552 51.7912 106.569 49.7259C107.586 47.6607 109.38 46.0841 111.556 45.3428C113.732 44.6015 116.112 44.756 118.172 45.7719ZM153.769 235.975C155.829 236.991 157.402 238.785 158.14 240.964C158.879 243.142 158.723 245.526 157.706 247.592C156.689 249.657 154.894 251.233 152.718 251.975C150.542 252.716 148.162 252.562 146.102 251.546C144.041 250.53 142.469 248.735 141.73 246.557C140.992 244.378 141.148 241.994 142.165 239.929C143.182 237.864 144.976 236.287 147.153 235.546C149.329 234.804 151.709 234.959 153.769 235.975Z" stroke="#E8E8E8" stroke-width="2"/>
</svg>
