<svg width="12" height="24" viewBox="0 0 12 24" fill="none" xmlns="http://www.w3.org/2000/svg">
<path d="M6 -0.000228882C7.39239 -0.000228882 8.72774 0.552894 9.71231 1.53746C10.6969 2.52203 11.25 3.85738 11.25 5.24977C11.25 7.04294 10.2723 8.5106 9.24217 9.56352C8.72738 10.0838 8.16579 10.5556 7.5645 10.9729L7.316 11.142L7.19933 11.2196L6.97942 11.3596L6.78342 11.4792L6.54075 11.6204C6.37596 11.7141 6.18961 11.7635 6 11.7635C5.81039 11.7635 5.62404 11.7141 5.45925 11.6204L5.21658 11.4792L4.91325 11.2925L4.80125 11.2196L4.56208 11.0604C3.9134 10.6213 3.30912 10.12 2.75783 9.56352C1.72767 8.51002 0.75 7.04294 0.75 5.24977C0.75 3.85738 1.30312 2.52203 2.28769 1.53746C3.27226 0.552894 4.60761 -0.000228882 6 -0.000228882ZM6 3.49977C5.77019 3.49977 5.54262 3.54504 5.3303 3.63298C5.11798 3.72093 4.92507 3.84983 4.76256 4.01233C4.60006 4.17484 4.47116 4.36776 4.38321 4.58008C4.29526 4.7924 4.25 5.01996 4.25 5.24977C4.25 5.47958 4.29526 5.70715 4.38321 5.91947C4.47116 6.13179 4.60006 6.32471 4.76256 6.48721C4.92507 6.64971 5.11798 6.77861 5.3303 6.86656C5.54262 6.95451 5.77019 6.99977 6 6.99977C6.46413 6.99977 6.90925 6.8154 7.23744 6.48721C7.56563 6.15902 7.75 5.7139 7.75 5.24977C7.75 4.78564 7.56563 4.34052 7.23744 4.01233C6.90925 3.68415 6.46413 3.49977 6 3.49977Z" fill="#8895B3"/>
<path d="M-0.000468417 16.571C-0.000468428 16.811 0.175532 17.0045 0.339532 17.0865L5.77103 13.946C5.85303 13.8933 5.92928 13.858 5.99378 13.858C6.05828 13.858 6.13428 13.8933 6.21628 13.946L11.6483 17.0865C11.8123 17.0045 11.9883 16.8113 11.9883 16.571C11.9883 16.3893 11.8828 16.1843 11.6658 16.061L6.63253 13.085C6.38628 12.9385 6.21053 12.833 5.99378 12.833C5.78278 12.833 5.60128 12.9385 5.35503 13.085L0.321782 16.0615C0.0992821 16.1963 -0.00046841 16.3893 -0.000468417 16.571ZM0.00553197 19.501C0.00553196 19.8233 0.193032 20.0343 0.661782 20.3153L5.24953 22.9813C5.53078 23.1455 5.75953 23.2215 5.99378 23.2215C6.23403 23.2215 6.45678 23.1455 6.73803 22.9815L11.3258 20.315C11.7945 20.0338 11.982 19.823 11.982 19.5008C11.982 19.1783 11.7945 18.9675 11.3258 18.692L6.73803 16.0203C6.45678 15.856 6.23403 15.78 5.99378 15.78C5.75928 15.78 5.53078 15.8563 5.24953 16.02L0.661782 18.692C0.193032 18.9675 0.00553199 19.1788 0.00553197 19.501ZM1.23003 19.5008C1.23003 19.4715 1.24753 19.4598 1.27703 19.442L5.73603 16.8875C5.82978 16.8288 5.91178 16.8053 5.99378 16.8053C6.07578 16.8053 6.15778 16.8288 6.25153 16.8873L10.7165 19.4423C10.7398 19.4598 10.7575 19.4715 10.7575 19.5008C10.7575 19.53 10.74 19.5475 10.7165 19.5593L6.25153 22.114C6.15778 22.1725 6.07578 22.2018 5.99378 22.2018C5.91178 22.2018 5.82978 22.1725 5.73603 22.114L1.27703 19.5593C1.24778 19.5475 1.23003 19.53 1.23003 19.5008Z" fill="#8895B3"/>
</svg>
