<svg width="16" height="16" viewBox="0 0 16 16" fill="none" xmlns="http://www.w3.org/2000/svg">
<path d="M8.00053 1.4667C7.80124 1.46524 7.60563 1.52033 7.43641 1.62559C7.26719 1.73086 7.1313 1.88196 7.04453 2.06137L5.56319 5.06404L2.24853 5.54537C2.05137 5.57378 1.86611 5.65682 1.71372 5.7851C1.56133 5.91338 1.44791 6.08177 1.3863 6.27119C1.32468 6.46061 1.31734 6.6635 1.3651 6.85688C1.41286 7.05027 1.51381 7.22641 1.65653 7.36537L4.05653 9.7027L3.48986 13.004C3.45615 13.2001 3.47797 13.4018 3.55284 13.5861C3.62771 13.7705 3.75266 13.9302 3.91355 14.0473C4.07445 14.1643 4.26488 14.234 4.46332 14.2486C4.66177 14.2631 4.86032 14.2218 5.03653 14.1294L8.00053 12.5707V1.4667Z" fill="#E9D628"/>
</svg>
