<svg width="30" height="30" viewBox="0 0 30 30" fill="none" xmlns="http://www.w3.org/2000/svg">
<path fill-rule="evenodd" clip-rule="evenodd" d="M16.2861 0.855786C16.0088 0.578539 15.6327 0.422791 15.2406 0.422791C14.8484 0.422791 14.4723 0.578539 14.195 0.855786L3.84283 11.2079L0.885078 14.1657C0.74383 14.3021 0.631166 14.4653 0.553659 14.6457C0.476153 14.8262 0.435356 15.0202 0.43365 15.2166C0.431943 15.4129 0.469361 15.6077 0.543721 15.7894C0.61808 15.9712 0.727891 16.1363 0.866747 16.2752C1.0056 16.414 1.17072 16.5238 1.35247 16.5982C1.53422 16.6725 1.72896 16.71 1.92532 16.7083C2.12169 16.7066 2.31575 16.6658 2.49618 16.5882C2.6766 16.5107 2.83979 16.3981 2.97621 16.2568L3.40952 15.8235V25.5634C3.40952 26.7401 3.87695 27.8686 4.70898 28.7006C5.54101 29.5326 6.66949 30 7.84616 30H22.6349C23.8116 30 24.9401 29.5326 25.7721 28.7006C26.6042 27.8686 27.0716 26.7401 27.0716 25.5634V15.8235L27.0534 15.2114C27.3323 15.4808 27.9333 15.2147 28.321 15.2114C28.0468 15.4856 28.7088 15.208 28.321 15.2114C28.3176 15.5991 28.5952 14.9372 28.321 15.2114C28.3244 14.8236 28.5904 15.4903 28.321 15.2114L16.2861 0.855786Z" fill="#002642"/>
<path fill-rule="evenodd" clip-rule="evenodd" d="M15.8453 0.432995C15.568 0.155749 15.1919 0 14.7998 0C14.4076 0 14.0315 0.155749 13.7542 0.432995L3.40206 11.6756L3.40559 12.1377C3.40559 12.2665 3.40559 12.2717 3.40559 12.4709C3.40559 12.67 3.40377 12.6936 3.40206 12.89C3.40035 13.0863 3.40559 13.2008 3.40559 13.3648C3.40559 13.5288 3.40559 13.5133 3.40559 13.6612C3.40559 13.809 3.40494 13.9087 3.40522 14.0276C3.40523 14.2851 3.40559 14.6416 3.40543 14.7802C3.40489 15.2479 3.4053 15.3843 3.4053 15.3843L3.40522 15.8399V16.6024L2.96875 25.1406C2.96875 26.3173 3.43618 27.8417 4.26821 28.6737C5.10024 29.5057 6.22871 29.9732 7.40538 29.9732C8.58205 29.9732 26.6308 15.4007 26.6308 15.4007L27.0641 15.834C27.343 16.1034 27.7166 16.2525 28.1044 16.2491C28.4921 16.2458 28.863 16.0902 29.1372 15.816C29.4114 15.5418 29.567 15.1709 29.5703 14.7831C29.5737 14.3954 29.4247 14.0218 29.1553 13.7429L15.8453 0.432995Z" fill="#8895B3"/>
</svg>
