<svg width="20" height="21" viewBox="0 0 20 21" fill="none" xmlns="http://www.w3.org/2000/svg">
<path d="M11.25 9.94128V11.4413H10.3125C9.95948 11.4464 9.62295 11.5915 9.37684 11.8446C9.13073 12.0978 8.99519 12.4383 9 12.7913V19.0913C9 19.8368 9.588 20.4413 10.3125 20.4413H18.1875C18.5405 20.4361 18.8771 20.2911 19.1232 20.0379C19.3693 19.7848 19.5048 19.4443 19.5 19.0913V12.7913C19.5 12.0458 18.912 11.4413 18.1875 11.4413H17.25V9.94128C17.25 9.14563 16.9339 8.38257 16.3713 7.81996C15.8087 7.25735 15.0456 6.94128 14.25 6.94128C13.4543 6.94128 12.6913 7.25735 12.1287 7.81996C11.5661 8.38257 11.25 9.14563 11.25 9.94128ZM14.25 8.44128C14.6478 8.44128 15.0294 8.59932 15.3107 8.88062C15.592 9.16193 15.75 9.54346 15.75 9.94128V11.4413H12.75V9.94128C12.75 9.54346 12.908 9.16193 13.1893 8.88062C13.4706 8.59932 13.8522 8.44128 14.25 8.44128ZM14.25 17.0663C13.9516 17.0663 13.6655 16.9478 13.4545 16.7368C13.2435 16.5258 13.125 16.2397 13.125 15.9413C13.125 15.6429 13.2435 15.3568 13.4545 15.1458C13.6655 14.9348 13.9516 14.8163 14.25 14.8163C14.5484 14.8163 14.8345 14.9348 15.0455 15.1458C15.2565 15.3568 15.375 15.6429 15.375 15.9413C15.375 16.2397 15.2565 16.5258 15.0455 16.7368C14.8345 16.9478 14.5484 17.0663 14.25 17.0663ZM7.5 18.9413V12.7913C7.5 11.4443 8.442 10.2638 9.75 9.99828V9.94128H2.25C1.65326 9.94128 1.08097 10.1783 0.65901 10.6003C0.237053 11.0223 0 11.5945 0 12.1913V12.9413C0 15.8978 2.79 18.9413 7.5 18.9413ZM11.625 4.31628C11.625 3.22227 11.1904 2.17306 10.4168 1.39947C9.64323 0.625881 8.59402 0.191284 7.5 0.191284C6.40598 0.191284 5.35677 0.625881 4.58318 1.39947C3.8096 2.17306 3.375 3.22227 3.375 4.31628C3.375 5.4103 3.8096 6.45951 4.58318 7.2331C5.35677 8.00669 6.40598 8.44128 7.5 8.44128C8.59402 8.44128 9.64323 8.00669 10.4168 7.2331C11.1904 6.45951 11.625 5.4103 11.625 4.31628Z" fill="black"/>
</svg>
