<svg width="34" height="38" viewBox="0 0 34 38" fill="none" xmlns="http://www.w3.org/2000/svg">
<g filter="url(#filter0_d_268_282)">
<path d="M18.4817 29.0542C22.2207 25.7635 28.8729 19.0405 28.8729 12.871C28.8729 9.45741 27.5168 6.18361 25.103 3.76983C22.6893 1.35605 19.4155 0 16.0019 0C12.5883 0 9.31447 1.35605 6.90069 3.76983C4.48691 6.18361 3.13086 9.45741 3.13086 12.871C3.13086 19.0405 9.78088 25.7635 13.522 29.0542C14.2045 29.6633 15.0872 29.9999 16.0019 29.9999C16.9166 29.9999 17.7993 29.6633 18.4817 29.0542ZM11.7115 12.871C11.7115 11.7331 12.1635 10.6419 12.9681 9.83728C13.7727 9.03269 14.864 8.58067 16.0019 8.58067C17.1397 8.58067 18.231 9.03269 19.0356 9.83728C19.8402 10.6419 20.2922 11.7331 20.2922 12.871C20.2922 14.0089 19.8402 15.1001 19.0356 15.9047C18.231 16.7093 17.1397 17.1613 16.0019 17.1613C14.864 17.1613 13.7727 16.7093 12.9681 15.9047C12.1635 15.1001 11.7115 14.0089 11.7115 12.871Z" fill="#002642"/>
<path d="M18.4817 29.0542C22.2207 25.7635 28.8729 19.0405 28.8729 12.871C24.0299 12.871 21.3648 10.599 25.103 3.76983C22.4374 0.944795 19.4155 0 16.0019 0C12.5883 0 9.31447 1.35605 6.90069 3.76983C4.48691 6.18361 3.13086 9.45741 3.13086 12.871C3.13086 19.0405 16.0019 18.2339 13.522 29.0542C14.2045 29.6633 15.0872 29.9999 16.0019 29.9999C16.9166 29.9999 17.7993 29.6633 18.4817 29.0542ZM11.7115 12.871C11.7115 11.7331 12.1635 10.6419 12.9681 9.83728C13.7727 9.03269 14.864 8.58067 16.0019 8.58067C17.1397 8.58067 18.231 9.03269 19.0356 9.83728C19.8402 10.6419 20.2922 11.7331 20.2922 12.871C20.2922 14.0089 19.8402 15.1001 19.0356 15.9047C18.231 16.7093 17.1397 17.1613 16.0019 17.1613C14.864 17.1613 13.7727 16.7093 12.9681 15.9047C12.1635 15.1001 11.7115 14.0089 11.7115 12.871Z" fill="#8895B3"/>
</g>
<defs>
<filter id="filter0_d_268_282" x="0.130859" y="0" width="33.7422" height="38" filterUnits="userSpaceOnUse" color-interpolation-filters="sRGB">
<feFlood flood-opacity="0" result="BackgroundImageFix"/>
<feColorMatrix in="SourceAlpha" type="matrix" values="0 0 0 0 0 0 0 0 0 0 0 0 0 0 0 0 0 0 127 0" result="hardAlpha"/>
<feOffset dx="1" dy="4"/>
<feGaussianBlur stdDeviation="2"/>
<feComposite in2="hardAlpha" operator="out"/>
<feColorMatrix type="matrix" values="0 0 0 0 0 0 0 0 0 0 0 0 0 0 0 0 0 0 0.5 0"/>
<feBlend mode="normal" in2="BackgroundImageFix" result="effect1_dropShadow_268_282"/>
<feBlend mode="normal" in="SourceGraphic" in2="effect1_dropShadow_268_282" result="shape"/>
</filter>
</defs>
</svg>
