<svg width="25" height="25" viewBox="0 0 25 25" fill="none" xmlns="http://www.w3.org/2000/svg">
<path fill-rule="evenodd" clip-rule="evenodd" d="M15.2207 3.44116C15.2207 3.37486 15.1944 3.31127 15.1475 3.26439C15.1006 3.2175 15.037 3.19116 14.9707 3.19116H7.9707C7.24136 3.19116 6.54188 3.48089 6.02616 3.99662C5.51043 4.51234 5.2207 5.21182 5.2207 5.94116V19.9412C5.2207 20.6705 5.51043 21.37 6.02616 21.8857C6.54188 22.4014 7.24136 22.6912 7.9707 22.6912H17.9707C18.7 22.6912 19.3995 22.4014 19.9152 21.8857C20.431 21.37 20.7207 20.6705 20.7207 19.9412V10.0882C20.7207 10.0219 20.6944 9.95827 20.6475 9.91139C20.6006 9.8645 20.537 9.83816 20.4707 9.83816H15.9707C15.7718 9.83816 15.581 9.75914 15.4404 9.61849C15.2997 9.47784 15.2207 9.28707 15.2207 9.08816V3.44116ZM15.9707 13.1912C16.1696 13.1912 16.3604 13.2702 16.501 13.4108C16.6417 13.5515 16.7207 13.7422 16.7207 13.9412C16.7207 14.1401 16.6417 14.3308 16.501 14.4715C16.3604 14.6121 16.1696 14.6912 15.9707 14.6912H9.9707C9.77179 14.6912 9.58103 14.6121 9.44037 14.4715C9.29972 14.3308 9.2207 14.1401 9.2207 13.9412C9.2207 13.7422 9.29972 13.5515 9.44037 13.4108C9.58103 13.2702 9.77179 13.1912 9.9707 13.1912H15.9707ZM15.9707 17.1912C16.1696 17.1912 16.3604 17.2702 16.501 17.4108C16.6417 17.5515 16.7207 17.7422 16.7207 17.9412C16.7207 18.1401 16.6417 18.3308 16.501 18.4715C16.3604 18.6121 16.1696 18.6912 15.9707 18.6912H9.9707C9.77179 18.6912 9.58103 18.6121 9.44037 18.4715C9.29972 18.3308 9.2207 18.1401 9.2207 17.9412C9.2207 17.7422 9.29972 17.5515 9.44037 17.4108C9.58103 17.2702 9.77179 17.1912 9.9707 17.1912H15.9707Z" fill="black"/>
<path d="M16.7207 3.76512C16.7207 3.58112 16.9137 3.46412 17.0567 3.57912C17.1777 3.67712 17.2867 3.79112 17.3797 3.92112L20.3927 8.11812C20.4607 8.21412 20.3867 8.33812 20.2687 8.33812H16.9707C16.9044 8.33812 16.8408 8.31178 16.7939 8.2649C16.747 8.21801 16.7207 8.15442 16.7207 8.08812V3.76512Z" fill="black"/>
</svg>
