<svg width="24" height="24" viewBox="0 0 24 24" fill="none" xmlns="http://www.w3.org/2000/svg">
<path d="M4 3C3.44772 3 3 3.44772 3 4C3 4.55228 3.47419 4.98007 3.95887 5.24484C4.12466 5.33541 4.27822 5.44979 4.41421 5.58579C4.78929 5.96086 5 6.46957 5 7V19C5 19.5304 5.21071 20.0391 5.58579 20.4142C5.96086 20.7893 6.46957 21 7 21H17C17.5304 21 18.0391 20.7893 18.4142 20.4142C18.7893 20.0391 19 19.5304 19 19V7C19 6.46957 19.2107 5.96086 19.5858 5.58579C19.7218 5.44979 19.8753 5.33541 20.0411 5.24484C20.5258 4.98007 21 4.55228 21 4C21 3.44772 20.5523 3 20 3H4ZM7 9.5C7 9.22386 7.22386 9 7.5 9H9.5C9.77614 9 10 9.22386 10 9.5C10 9.77614 9.77614 10 9.5 10H7.5C7.22386 10 7 9.77614 7 9.5ZM7 11.5C7 11.2239 7.22386 11 7.5 11H9.5C9.77614 11 10 11.2239 10 11.5C10 11.7761 9.77614 12 9.5 12H7.5C7.22386 12 7 11.7761 7 11.5ZM10 15.5C10 15.7761 9.77614 16 9.5 16H7.5C7.22386 16 7 15.7761 7 15.5C7 15.2239 7.22386 15 7.5 15H9.5C9.77614 15 10 15.2239 10 15.5ZM12 13.5C12 13.7761 11.7761 14 11.5 14H7.5C7.22386 14 7 13.7761 7 13.5C7 13.2239 7.22386 13 7.5 13H11.5C11.7761 13 12 13.2239 12 13.5ZM12 7.5C12 7.77614 11.7761 8 11.5 8H7.5C7.22386 8 7 7.77614 7 7.5C7 7.22386 7.22386 7 7.5 7H11.5C11.7761 7 12 7.22386 12 7.5Z" fill="#005493"/>
</svg>
