<svg width="45" height="32" viewBox="0 0 45 32" fill="none" xmlns="http://www.w3.org/2000/svg">
<path d="M26.08 22.4C26.08 23.2998 26.2273 24.1475 26.522 24.9432C26.8167 25.7389 27.2413 26.4578 27.796 27.0998C27.9867 27.3248 28.082 27.57 28.082 27.8354C28.082 28.1009 27.978 28.3297 27.77 28.5218C27.562 28.7146 27.3107 28.8072 27.016 28.7995C26.7213 28.7918 26.4787 28.6751 26.288 28.4495C25.56 27.614 24.9967 26.6862 24.598 25.6663C24.1993 24.6463 24 23.5575 24 22.4C24 21.2431 24.1993 20.1505 24.598 19.1222C24.9967 18.0938 25.56 17.1699 26.288 16.3505C26.4787 16.1255 26.7213 16.0089 27.016 16.0005C27.3107 15.9922 27.562 16.0847 27.77 16.2782C27.978 16.471 28.082 16.6998 28.082 16.9646C28.082 17.2294 27.9867 17.4746 27.796 17.7002C27.2413 18.3589 26.8167 19.0862 26.522 19.8819C26.2273 20.6775 26.08 21.5169 26.08 22.4ZM30.24 22.4C30.24 22.7696 30.292 23.1192 30.396 23.4489C30.5 23.7786 30.6473 24.0878 30.838 24.3763C30.994 24.6013 31.0678 24.8503 31.0595 25.1235C31.0512 25.3966 30.9427 25.6296 30.734 25.8224C30.526 26.0153 30.2747 26.1078 29.98 26.1001C29.6853 26.0924 29.46 25.9757 29.304 25.7501C28.94 25.2842 28.6585 24.762 28.4595 24.1835C28.2605 23.6051 28.1607 23.0106 28.16 22.4C28.16 21.7734 28.2598 21.175 28.4595 20.6049C28.6592 20.0348 28.9407 19.5165 29.304 19.0499C29.4773 18.8249 29.7072 18.7124 29.9935 18.7124C30.2799 18.7124 30.5267 18.8088 30.734 19.0017C30.942 19.1945 31.0505 19.4236 31.0595 19.689C31.0685 19.9545 30.9947 20.1994 30.838 20.4237C30.6473 20.7129 30.5 21.0223 30.396 21.3521C30.292 21.6818 30.24 22.0311 30.24 22.4ZM34.4 24.3281C33.828 24.3281 33.3385 24.1395 32.9315 23.7622C32.5245 23.385 32.3207 22.9309 32.32 22.4C32.32 21.8698 32.5238 21.416 32.9315 21.0387C33.3392 20.6615 33.8287 20.4725 34.4 20.4719C34.972 20.4719 35.4618 20.6608 35.8695 21.0387C36.2772 21.4167 36.4807 21.8704 36.48 22.4C36.48 22.9302 36.2765 23.3843 35.8695 23.7622C35.4625 24.1401 34.9727 24.3288 34.4 24.3281ZM38.56 22.4C38.56 22.0304 38.508 21.6808 38.404 21.3511C38.3 21.0214 38.1527 20.7122 37.962 20.4237C37.806 20.1987 37.7367 19.9497 37.754 19.6765C37.7713 19.4034 37.884 19.1704 38.092 18.9776C38.3 18.7847 38.5427 18.6925 38.82 18.7009C39.0973 18.7092 39.3227 18.8256 39.496 19.0499C39.86 19.5158 40.1418 20.0342 40.3415 20.6049C40.5412 21.1756 40.6407 21.774 40.64 22.4C40.64 23.0106 40.5402 23.6051 40.3405 24.1835C40.1408 24.762 39.8593 25.2842 39.496 25.7501C39.34 25.9751 39.1147 26.0876 38.82 26.0876C38.5253 26.0876 38.274 25.9912 38.066 25.7983C37.858 25.6055 37.7498 25.3767 37.7415 25.1119C37.7332 24.8471 37.8067 24.6019 37.962 24.3763C38.1527 24.0871 38.3 23.778 38.404 23.4489C38.508 23.1198 38.56 22.7702 38.56 22.4ZM42.72 22.4C42.72 21.5002 42.5727 20.6528 42.278 19.8578C41.9833 19.0627 41.5587 18.3435 41.004 17.7002C40.8133 17.4752 40.7135 17.23 40.7045 16.9646C40.6955 16.6991 40.7953 16.4703 41.004 16.2782C41.212 16.0854 41.4678 15.9928 41.7715 16.0005C42.0752 16.0082 42.322 16.1249 42.512 16.3505C43.24 17.1699 43.8033 18.0938 44.202 19.1222C44.6007 20.1505 44.8 21.2431 44.8 22.4C44.8 23.5569 44.6007 24.6456 44.202 25.6663C43.8033 26.6869 43.24 27.6146 42.512 28.4495C42.3213 28.6745 42.0787 28.7911 41.784 28.7995C41.4893 28.8078 41.238 28.7153 41.03 28.5218C40.822 28.329 40.718 28.1002 40.718 27.8354C40.718 27.5706 40.8133 27.3254 41.004 27.0998C41.5587 26.4411 41.9833 25.7141 42.278 24.9191C42.5727 24.1241 42.72 23.2844 42.72 22.4Z" fill="black"/>
<path d="M13.9287 8.53681L9.00256 0.429483C8.94199 0.328086 8.86126 0.23983 8.76523 0.170026C8.6692 0.100221 8.55985 0.0503099 8.44377 0.0232954C8.32769 -0.00371916 8.20727 -0.00727924 8.08976 0.0128299C7.97225 0.0329391 7.86007 0.0763017 7.75998 0.140309C5.52887 1.61812 3.66978 3.58001 2.32495 5.87591C0.980125 8.1718 0.185179 10.7409 0.000929426 13.3866C-0.0045202 13.5043 0.0140371 13.6218 0.0554999 13.7323C0.0969627 13.8428 0.160487 13.9439 0.242302 14.0297C0.324118 14.1155 0.422558 14.1842 0.531783 14.2317C0.641008 14.2792 0.758792 14.3046 0.878147 14.3064L10.4464 14.4631C10.4676 13.2644 10.7986 12.0909 11.408 11.0538C12.0175 10.0167 12.8851 9.15032 13.9287 8.53681ZM28.2413 0.680333C28.1412 0.608766 28.027 0.558589 27.9061 0.533005C27.7852 0.50742 27.6603 0.506989 27.5392 0.53174C27.4181 0.556491 27.3036 0.605881 27.203 0.676756C27.1023 0.747631 27.0177 0.838436 26.9546 0.943377L22.0249 9.05768C22.8607 9.70315 23.5396 10.525 24.0117 11.4631C24.4839 12.4011 24.7374 13.4315 24.7537 14.4788L34.3183 14.322C34.4381 14.3203 34.5564 14.2948 34.666 14.2471C34.7757 14.1994 34.8745 14.1305 34.9567 14.0444C35.0388 13.9583 35.1026 13.8567 35.1442 13.7458C35.1859 13.6349 35.2045 13.5169 35.1991 13.3988C35.0308 10.9105 34.3224 8.48699 33.122 6.29258C31.9215 4.09818 30.257 2.18418 28.2413 0.680333ZM21.063 20.7327C20.0073 21.326 18.8148 21.6415 17.6 21.649C16.3846 21.6417 15.1915 21.3262 14.1353 20.7327L9.47206 29.0159C9.41324 29.1182 9.37599 29.2311 9.36257 29.3479C9.34915 29.4647 9.35984 29.583 9.39397 29.6957C9.42811 29.8083 9.485 29.9129 9.56121 30.0033C9.63742 30.0936 9.73138 30.1678 9.83742 30.2214C12.2526 31.3936 14.9086 32.0022 17.6 32C20.2903 32.0021 22.9451 31.3936 25.3591 30.2214C25.4651 30.1678 25.5591 30.0936 25.6353 30.0033C25.7115 29.9129 25.7684 29.8083 25.8025 29.6957C25.8366 29.583 25.8473 29.4647 25.8339 29.3479C25.8205 29.2311 25.7832 29.1182 25.7244 29.0159L21.063 20.7327Z" fill="black"/>
<path d="M17.6008 19.2C20.2517 19.2 22.4008 17.0509 22.4008 14.4C22.4008 11.749 20.2517 9.59998 17.6008 9.59998C14.9498 9.59998 12.8008 11.749 12.8008 14.4C12.8008 17.0509 14.9498 19.2 17.6008 19.2Z" fill="black"/>
</svg>
