<svg width="32" height="32" viewBox="0 0 32 32" fill="none" xmlns="http://www.w3.org/2000/svg">
<path d="M16.0007 9.33337C12.3207 9.33337 9.33398 12.32 9.33398 16C9.33398 19.68 12.3207 22.6667 16.0007 22.6667C19.6807 22.6667 22.6673 19.68 22.6673 16C22.6673 12.32 19.6807 9.33337 16.0007 9.33337ZM2.66732 17.3334H5.33398C6.06732 17.3334 6.66732 16.7334 6.66732 16C6.66732 15.2667 6.06732 14.6667 5.33398 14.6667H2.66732C1.93398 14.6667 1.33398 15.2667 1.33398 16C1.33398 16.7334 1.93398 17.3334 2.66732 17.3334ZM26.6673 17.3334H29.334C30.0673 17.3334 30.6673 16.7334 30.6673 16C30.6673 15.2667 30.0673 14.6667 29.334 14.6667H26.6673C25.934 14.6667 25.334 15.2667 25.334 16C25.334 16.7334 25.934 17.3334 26.6673 17.3334ZM14.6673 2.66671V5.33337C14.6673 6.06671 15.2673 6.66671 16.0007 6.66671C16.734 6.66671 17.334 6.06671 17.334 5.33337V2.66671C17.334 1.93337 16.734 1.33337 16.0007 1.33337C15.2673 1.33337 14.6673 1.93337 14.6673 2.66671ZM14.6673 26.6667V29.3334C14.6673 30.0667 15.2673 30.6667 16.0007 30.6667C16.734 30.6667 17.334 30.0667 17.334 29.3334V26.6667C17.334 25.9334 16.734 25.3334 16.0007 25.3334C15.2673 25.3334 14.6673 25.9334 14.6673 26.6667ZM7.98732 6.10671C7.86397 5.9831 7.71745 5.88504 7.55615 5.81813C7.39485 5.75122 7.22194 5.71678 7.04732 5.71678C6.87269 5.71678 6.69978 5.75122 6.53849 5.81813C6.37719 5.88504 6.23067 5.9831 6.10732 6.10671C5.98371 6.23006 5.88565 6.37658 5.81874 6.53788C5.75183 6.69917 5.71739 6.87208 5.71739 7.04671C5.71739 7.22133 5.75183 7.39424 5.81874 7.55554C5.88565 7.71684 5.98371 7.86336 6.10732 7.98671L7.52065 9.40004C8.04065 9.92004 8.89398 9.92004 9.40065 9.40004C9.90732 8.88004 9.92065 8.02671 9.40065 7.52004L7.98732 6.10671ZM24.4807 22.6C24.3573 22.4764 24.2108 22.3784 24.0495 22.3115C23.8882 22.2446 23.7153 22.2101 23.5407 22.2101C23.366 22.2101 23.1931 22.2446 23.0318 22.3115C22.8705 22.3784 22.724 22.4764 22.6007 22.6C22.477 22.7234 22.379 22.8699 22.3121 23.0312C22.2452 23.1925 22.2107 23.3654 22.2107 23.54C22.2107 23.7147 22.2452 23.8876 22.3121 24.0489C22.379 24.2102 22.477 24.3567 22.6007 24.48L24.014 25.8934C24.534 26.4134 25.3873 26.4134 25.894 25.8934C26.0176 25.77 26.1157 25.6235 26.1826 25.4622C26.2495 25.3009 26.2839 25.128 26.2839 24.9534C26.2839 24.7787 26.2495 24.6058 26.1826 24.4445C26.1157 24.2832 26.0176 24.1367 25.894 24.0134L24.4807 22.6ZM25.894 7.98671C26.0176 7.86336 26.1157 7.71684 26.1826 7.55554C26.2495 7.39424 26.2839 7.22133 26.2839 7.04671C26.2839 6.87208 26.2495 6.69917 26.1826 6.53788C26.1157 6.37658 26.0176 6.23006 25.894 6.10671C25.7706 5.9831 25.6241 5.88504 25.4628 5.81813C25.3015 5.75122 25.1286 5.71678 24.954 5.71678C24.7794 5.71678 24.6065 5.75122 24.4452 5.81813C24.2839 5.88504 24.1373 5.9831 24.014 6.10671L22.6007 7.52004C22.0807 8.04004 22.0807 8.89337 22.6007 9.40004C23.1207 9.90671 23.974 9.92004 24.4807 9.40004L25.894 7.98671ZM9.40065 24.48C9.52426 24.3567 9.62232 24.2102 9.68923 24.0489C9.75614 23.8876 9.79058 23.7147 9.79058 23.54C9.79058 23.3654 9.75614 23.1925 9.68923 23.0312C9.62232 22.8699 9.52426 22.7234 9.40065 22.6C9.2773 22.4764 9.13078 22.3784 8.96948 22.3115C8.80819 22.2446 8.63528 22.2101 8.46065 22.2101C8.28603 22.2101 8.11312 22.2446 7.95182 22.3115C7.79052 22.3784 7.644 22.4764 7.52065 22.6L6.10732 24.0134C5.58732 24.5334 5.58732 25.3867 6.10732 25.8934C6.62732 26.4 7.48065 26.4134 7.98732 25.8934L9.40065 24.48Z" fill="#FFA500"/>
</svg>
