<svg width="22" height="21" viewBox="0 0 22 21" fill="none" xmlns="http://www.w3.org/2000/svg">
<path d="M13.844 2.28524L12.416 3.06624L13.844 3.84724L14.625 5.27524L15.406 3.84724L16.834 3.06624L15.406 2.28524L14.625 0.857239L13.844 2.28524ZM8.412 3.09924C7.10231 3.36498 5.88006 3.95458 4.85685 4.8142C3.83364 5.67382 3.04207 6.77606 2.55443 8.0203C2.06679 9.26453 1.89861 10.6111 2.06525 11.937C2.23189 13.263 2.72804 14.5261 3.5084 15.6109C4.28875 16.6958 5.32845 17.5679 6.53255 18.1476C7.73664 18.7273 9.06678 18.9961 10.4015 18.9295C11.7362 18.8629 13.033 18.463 14.1734 17.7664C15.3138 17.0697 16.2615 16.0984 16.93 14.9412C14.5552 14.9228 12.284 13.9664 10.6112 12.2806C8.93852 10.5947 7.99993 8.31611 8 5.94124C8 4.96124 8.131 4.00424 8.412 3.09924ZM0 10.9412C0 5.41824 4.477 0.941239 10 0.941239H11.734L10.866 2.44124C10.287 3.44124 10 4.63124 10 5.94124C9.99985 6.97486 10.2286 7.99568 10.6698 8.93039C11.1111 9.8651 11.7538 10.6905 12.5519 11.3473C13.35 12.0041 14.2837 12.476 15.2858 12.7291C16.288 12.9822 17.3337 13.0103 18.348 12.8112L20.03 12.4842L19.487 14.1102C18.162 18.0782 14.417 20.9412 10 20.9412C4.477 20.9412 0 16.4642 0 10.9412ZM18.5 5.35724L19.414 7.02724L21.084 7.94124L19.414 8.85524L18.5 10.5252L17.586 8.85524L15.916 7.94124L17.586 7.02724L18.5 5.35724Z" fill="black"/>
</svg>
