<svg width="48" height="47" viewBox="0 0 48 47" fill="none" xmlns="http://www.w3.org/2000/svg">
<path fill-rule="evenodd" clip-rule="evenodd" d="M27.5008 31C27.501 31.5046 27.3104 31.9906 26.9673 32.3605C26.6242 32.7305 26.154 32.9572 25.6508 32.995L25.5008 33H23.5008C22.9962 33.0002 22.5103 32.8096 22.1403 32.4665C21.7703 32.1234 21.5437 31.6532 21.5058 31.15L21.5008 31H27.5008ZM24.5008 14C26.3158 14 28.0598 14.7049 29.3651 15.9661C30.6703 17.2273 31.4346 18.9461 31.4968 20.76L31.5008 21V24.764L33.3228 28.408C33.4023 28.567 33.4421 28.7429 33.4388 28.9206C33.4355 29.0984 33.3891 29.2727 33.3037 29.4286C33.2183 29.5845 33.0963 29.7174 32.9483 29.8158C32.8003 29.9143 32.6306 29.9754 32.4538 29.994L32.3388 30H16.6628C16.485 30.0001 16.3098 29.957 16.1522 29.8745C15.9947 29.792 15.8595 29.6725 15.7582 29.5264C15.657 29.3802 15.5927 29.2116 15.5708 29.0351C15.549 28.8586 15.5703 28.6795 15.6328 28.513L15.6788 28.408L17.5008 24.764V21C17.5008 19.1435 18.2383 17.363 19.5511 16.0503C20.8638 14.7375 22.6443 14 24.5008 14ZM24.5008 16C23.2124 16.0001 21.9737 16.4975 21.043 17.3887C20.1124 18.2798 19.5617 19.4958 19.5058 20.783L19.5008 21V24.764C19.5008 25.012 19.4547 25.2579 19.3648 25.489L19.2898 25.659L18.1198 28H30.8828L29.7128 25.658C29.6018 25.4363 29.533 25.1959 29.5098 24.949L29.5008 24.764V21C29.5008 19.6739 28.974 18.4021 28.0364 17.4645C27.0987 16.5268 25.8269 16 24.5008 16Z" fill="black"/>
<circle cx="28" cy="15.5" r="2.125" fill="#FF0000" stroke="#FAFAFA" stroke-width="0.75"/>
</svg>
