<svg width="27" height="32" viewBox="0 0 27 32" fill="none" xmlns="http://www.w3.org/2000/svg">
<path d="M15.7303 6.10551C13.7656 6.10616 12.034 7.4895 10.8844 8.69673C10.8187 8.76549 10.7292 8.80652 10.6343 8.81139C10.5393 8.81626 10.4461 8.7846 10.3737 8.72291C9.30792 7.79065 7.88727 6.77066 6.34616 6.3006C5.82961 6.14414 5.36414 6.36214 5.13304 6.7543C4.91437 7.13008 4.92354 7.62502 5.20178 8.03157C5.59491 8.60005 5.95831 9.18852 6.29051 9.79462C6.44763 10.0879 6.5766 10.3622 6.66498 10.6012C6.75729 10.848 6.79265 11.0235 6.79265 11.1308C6.79265 11.2382 6.75664 11.413 6.66498 11.6591C6.5766 11.8981 6.44698 12.1718 6.28985 12.4664C5.97561 13.053 5.56774 13.6873 5.19981 14.2268C4.92158 14.6334 4.9111 15.1296 5.13042 15.5034C5.36087 15.8975 5.82634 16.1155 6.34354 15.9571C7.88334 15.4884 9.30465 14.469 10.3711 13.5374C10.4435 13.4757 10.5367 13.4441 10.6317 13.4489C10.7266 13.4538 10.8161 13.4948 10.8818 13.5636C12.0314 14.7708 13.7624 16.1561 15.7277 16.1548C16.8956 16.1548 17.9654 15.6664 18.8636 15.034C19.7651 14.3996 20.5271 13.5983 21.0915 12.9148C21.5097 12.4138 21.7389 11.7819 21.739 11.1293C21.7392 10.4767 21.5102 9.84469 21.0921 9.34355C20.5278 8.66006 19.7651 7.85939 18.8656 7.22566C17.9667 6.59259 16.8976 6.10485 15.7303 6.10551ZM18.224 9.65583C18.3542 9.78606 18.4274 9.96268 18.4274 10.1468C18.4274 10.331 18.3542 10.5076 18.224 10.6378C18.0938 10.7681 17.9171 10.8412 17.733 10.8412C17.5488 10.8412 17.3722 10.7681 17.242 10.6378C17.1117 10.5076 17.0386 10.331 17.0386 10.1468C17.0386 9.96268 17.1117 9.78606 17.242 9.65583C17.3722 9.52561 17.5488 9.45245 17.733 9.45245C17.9171 9.45245 18.0938 9.52561 18.224 9.65583Z" fill="black"/>
<path d="M13.386 19.0753C12.2625 17.8955 10.7679 16.7715 9.21109 16.7715C8.3037 16.7715 7.41923 17.1531 6.6094 17.7234C5.80021 18.2916 5.09774 19.0255 4.56418 19.673C4.28293 20.0083 4.12882 20.4319 4.12894 20.8695C4.12906 21.3072 4.2834 21.7307 4.56483 22.0658C5.09905 22.714 5.80218 23.4472 6.61005 24.0168C7.42054 24.5877 8.30501 24.9693 9.2124 24.9693C10.7705 24.9693 12.2652 23.8453 13.3886 22.6655C13.6189 22.4236 13.9335 22.2798 14.2671 22.264C14.6007 22.2481 14.9276 22.3615 15.1798 22.5804C16.207 23.4793 17.5118 24.3991 18.8676 24.8122C18.9291 24.8306 18.9579 24.8214 18.9671 24.8175C18.9863 24.8089 19.002 24.7942 19.0116 24.7756C19.043 24.7219 19.0607 24.6112 18.9776 24.4888C18.565 23.8934 18.1837 23.277 17.8352 22.642C17.6729 22.3452 17.5303 22.0382 17.4083 21.7228C17.3029 21.4393 17.2224 21.1414 17.2224 20.8704C17.2224 20.5994 17.3023 20.3021 17.4077 20.0187C17.5297 19.7028 17.6723 19.3953 17.8345 19.0982C18.1826 18.4628 18.5635 17.8459 18.9756 17.25C19.0588 17.1276 19.0411 17.017 19.0097 16.9633C19 16.9447 18.9843 16.9299 18.9651 16.9214C18.956 16.9175 18.9259 16.9083 18.8656 16.9266C17.5091 17.3404 16.2057 18.2602 15.1785 19.1604C14.6547 19.6187 13.8613 19.5741 13.386 19.0753ZM9.21109 15.8457C11.1758 15.8464 12.9074 17.2297 14.057 18.437C14.1227 18.5057 14.2122 18.5468 14.3071 18.5516C14.4021 18.5565 14.4953 18.5248 14.5677 18.4631C15.6335 17.5309 17.0541 16.5109 18.5953 16.0408C19.1118 15.8844 19.5773 16.1024 19.8084 16.4945C20.027 16.8703 20.0179 17.3653 19.7396 17.7718C19.3465 18.3403 18.9831 18.9288 18.6509 19.5349C18.4938 19.8282 18.3648 20.1025 18.2764 20.3414C18.1841 20.5882 18.1488 20.7637 18.1488 20.8711C18.1488 20.9784 18.1848 21.1532 18.2764 21.3994C18.3648 21.6383 18.4944 21.912 18.6516 22.2066C18.9658 22.7932 19.3737 23.4276 19.7416 23.967C20.0198 24.3736 20.0303 24.8698 19.811 25.2437C19.5805 25.6378 19.1151 25.8558 18.5979 25.6973C17.0581 25.2286 15.6368 24.2093 14.5703 23.2777C14.4979 23.216 14.4047 23.1843 14.3098 23.1892C14.2148 23.194 14.1253 23.2351 14.0596 23.3038C12.91 24.5111 11.1791 25.8964 9.21371 25.8951C8.04576 25.8951 6.97602 25.4067 6.0778 24.7743C5.1763 24.1399 4.41426 23.3385 3.84992 22.6551C3.43166 22.1541 3.20249 21.5222 3.20238 20.8695C3.20226 20.2169 3.43119 19.5849 3.84927 19.0838C4.4136 18.4003 5.1763 17.5996 6.07583 16.9659C6.97471 16.3328 8.0438 15.8451 9.21109 15.8457ZM6.71676 19.3967C6.58654 19.5269 6.51338 19.7036 6.51338 19.8877C6.51338 20.0719 6.58654 20.2485 6.71676 20.3787C6.84699 20.509 7.02361 20.5821 7.20777 20.5821C7.39194 20.5821 7.56856 20.509 7.69878 20.3787C7.829 20.2485 7.90216 20.0719 7.90216 19.8877C7.90216 19.7036 7.829 19.5269 7.69878 19.3967C7.56856 19.2665 7.39194 19.1933 7.20777 19.1933C7.02361 19.1933 6.84699 19.2665 6.71676 19.3967Z" fill="black"/>
</svg>
