<svg width="24" height="24" viewBox="0 0 24 24" fill="none" xmlns="http://www.w3.org/2000/svg">
<g opacity="0.5">
<path d="M11.9996 20.4C13.3251 20.4 14.3996 19.3255 14.3996 18C14.3996 16.6745 13.3251 15.6 11.9996 15.6C10.6741 15.6 9.59961 16.6745 9.59961 18C9.59961 19.3255 10.6741 20.4 11.9996 20.4Z" fill="black"/>
<path d="M11.9996 14.4C13.3251 14.4 14.3996 13.3255 14.3996 12C14.3996 10.6745 13.3251 9.59998 11.9996 9.59998C10.6741 9.59998 9.59961 10.6745 9.59961 12C9.59961 13.3255 10.6741 14.4 11.9996 14.4Z" fill="black"/>
<path d="M11.9996 8.39998C13.3251 8.39998 14.3996 7.32546 14.3996 5.99998C14.3996 4.67449 13.3251 3.59998 11.9996 3.59998C10.6741 3.59998 9.59961 4.67449 9.59961 5.99998C9.59961 7.32546 10.6741 8.39998 11.9996 8.39998Z" fill="black"/>
</g>
</svg>
