<svg width="19" height="24" viewBox="0 0 19 24" fill="none" xmlns="http://www.w3.org/2000/svg">
<path d="M15.3225 11.3349C16.0163 11.3349 16.6816 11.6105 17.1721 12.101C17.6627 12.5916 17.9383 13.2569 17.9383 13.9506V14.8225C17.9383 18.2596 14.6948 21.7978 9.21914 21.7978C3.74352 21.7978 1.37191 26.1068 1.37191 22.6698L0.5 13.9506C0.5 13.2569 0.775586 12.5916 1.26613 12.101C1.75668 11.6105 2.422 11.3349 3.11574 11.3349H15.3225ZM9.21914 0C10.491 0 11.7107 0.505242 12.6101 1.40458C13.5094 2.30391 14.0147 3.52367 14.0147 4.79553C14.0147 6.06738 13.5094 7.28714 12.6101 8.18647C11.7107 9.08581 10.491 9.59105 9.21914 9.59105C7.94728 9.59105 6.72752 9.08581 5.82819 8.18647C4.92885 7.28714 4.42361 6.06738 4.42361 4.79553C4.42361 3.52367 4.92885 2.30391 5.82819 1.40458C6.72752 0.505242 7.94728 0 9.21914 0Z" fill="#404040"/>
<path d="M3.98765 11.3349C3.29392 11.3349 2.62859 11.6105 2.13804 12.101C1.6475 12.5916 1.37191 13.2569 1.37191 13.9506V14.8225C1.37191 18.2596 4.61543 21.7978 10.0911 21.7978C15.5667 21.7978 17.9383 26.1068 17.9383 22.6698L18.8102 13.9506C18.8102 13.2569 18.5346 12.5916 18.0441 12.101C17.5535 11.6105 16.8882 11.3349 16.1944 11.3349H3.98765Z" fill="black"/>
</svg>
