<svg width="36" height="27" viewBox="0 0 36 27" fill="none" xmlns="http://www.w3.org/2000/svg">
<path d="M33.0868 13.0721L33.0863 12.9156C33.0863 12.9155 33.0863 12.9153 33.0863 12.9152C33.0863 12.8215 33.1236 12.7317 33.1898 12.6654C33.2561 12.5991 33.3461 12.5618 33.4398 12.5618L33.4398 12.3122L33.4398 12.5618C33.5336 12.5618 33.6235 12.5991 33.6898 12.6654C33.7562 12.7318 33.7934 12.8218 33.7934 12.9156L33.7934 16.226L33.7918 16.2276L33.7918 16.3312C33.7918 16.3776 33.7827 16.4236 33.7649 16.4665C33.7471 16.5095 33.7211 16.5485 33.6882 16.5813C33.6554 16.6142 33.6164 16.6402 33.5735 16.658C33.5306 16.6758 33.4847 16.6849 33.4382 16.6849C33.3918 16.6849 33.3458 16.6758 33.3029 16.658C33.26 16.6402 33.221 16.6142 33.1882 16.5813C33.1554 16.5485 33.1293 16.5095 33.1116 16.4665L32.8807 16.5622L33.1116 16.4665C33.0938 16.4237 33.0847 16.3778 33.0847 16.3315C33.0847 16.3314 33.0847 16.3313 33.0847 16.3312L33.0852 16.1746L33.0862 15.8853L32.7999 15.9262L27.6525 16.6618L27.5964 16.6699L27.5493 16.7013L25.1038 18.332L25.1034 18.3323C25.0456 18.371 24.9776 18.3917 24.908 18.3919C24.9079 18.3919 24.9078 18.3919 24.9077 18.3919L16.0246 18.3914L16.0246 18.6415L16.0246 18.3914C15.611 18.3914 15.2143 18.227 14.9218 17.9343C14.6294 17.6417 14.465 17.2448 14.465 16.831L14.465 12.4142C14.465 12.4142 14.465 12.4142 14.465 12.4142C14.4651 12.0003 14.6294 11.6034 14.9218 11.3108C15.2143 11.0182 15.611 10.8538 16.0246 10.8537L24.9088 10.8548C24.9089 10.8548 24.9091 10.8548 24.9092 10.8548C24.979 10.8551 25.0473 10.876 25.1054 10.9147C25.1054 10.9147 25.1054 10.9147 25.1054 10.9147L27.5509 12.5454L27.598 12.5769L27.6541 12.5849L32.8015 13.3205L33.0878 13.3614L33.0868 13.0721ZM15.4234 17.4334L15.4234 17.4335C15.5831 17.5923 15.799 17.6815 16.024 17.6817C16.0242 17.6817 16.0243 17.6817 16.0244 17.6817L16.629 17.6833L16.8796 17.684L16.8796 17.4332L16.8796 11.8119L16.8796 11.5618L16.6297 11.5618L16.0262 11.5618L16.0261 11.5618C15.7999 11.5619 15.583 11.6518 15.4231 11.8118C15.2632 11.9719 15.1733 12.1888 15.1733 12.4151V12.4152L15.1733 16.8293C15.1733 16.8293 15.1733 16.8294 15.1733 16.8294C15.173 16.9416 15.1949 17.0528 15.2379 17.1564C15.2808 17.2601 15.3439 17.3543 15.4234 17.4334ZM27.4185 15.9797L27.4188 15.9797L32.8722 15.2003L33.0868 15.1697L33.0868 14.9528L33.0868 14.2924L33.0868 14.0755L32.8722 14.0448L27.4188 13.2655L27.4185 13.2654C27.3667 13.2581 27.3172 13.2391 27.2738 13.2099L27.2731 13.2095L24.8655 11.6038L24.8025 11.5618H24.7269L23.8067 11.5618H23.5567L23.5567 11.8119L23.5567 17.4332V17.6833H23.8067H24.7269H24.8025L24.8655 17.6413L27.2731 16.0357L27.2738 16.0352C27.3172 16.006 27.3667 15.9871 27.4185 15.9797Z" stroke="black" stroke-width="0.5"/>
<mask id="path-2-inside-1_188_237" fill="white">
<path d="M13.9685 0C13.6112 8.62147e-05 13.2538 0.00276856 12.8965 0.00804683C12.4381 0.015289 12.192 0.225311 12.1743 0.568106C12.1518 0.98976 12.1695 1.41141 12.1695 1.86606H15.7346C15.7346 1.39773 15.7547 0.951135 15.7266 0.505341C15.7073 0.19071 15.4435 0.0144843 15.0389 0.00885152C14.6819 0.00321874 14.3248 0.000804684 13.9677 0.000804684M12.6118 2.18954C12.7887 2.62648 12.4895 2.84777 12.1276 3.06021C11.8948 3.19621 11.6767 3.35614 11.477 3.53738C10.2755 4.63497 9.69325 5.86614 10.1484 7.31537C10.2297 7.57448 10.3865 7.6807 10.7677 7.67667C12.73 7.65736 14.6923 7.66702 16.6546 7.66702C17.7058 7.66702 17.799 7.60264 17.9221 6.78428C17.932 6.70772 17.9357 6.63049 17.9333 6.55334C17.916 5.87136 17.7271 5.20476 17.3841 4.61517C17.0411 4.02557 16.5551 3.53201 15.971 3.18011C15.5922 2.91456 15.059 2.7158 15.2553 2.18874L12.6118 2.18954ZM12.7807 3.38852C12.8134 3.38669 12.8462 3.38723 12.8788 3.39013C12.383 3.88032 11.9371 4.41862 11.5478 4.99708C11.3007 5.587 11.1247 6.20424 11.0234 6.83578C10.5007 5.66899 11.7682 3.4376 12.7815 3.38771M10.4605 7.93739V14.3893H17.4782V7.93739H10.4605ZM11.3323 8.61171L11.5003 8.61493C11.5356 8.72702 11.5593 8.84242 11.5711 8.95934C11.5759 10.3981 11.5735 11.8377 11.5727 13.2765C11.581 13.3533 11.5755 13.4309 11.5566 13.5058C11.5381 13.5557 11.4634 13.5919 11.4135 13.6345C11.3596 13.5959 11.2736 13.5637 11.2583 13.5171C11.2391 13.4288 11.2337 13.3382 11.2422 13.2483C11.2422 11.8345 11.2398 10.4214 11.2454 9.00762C11.2603 8.87294 11.2894 8.74023 11.3323 8.61171ZM17.265 14.6895C16.1697 14.7096 15.0719 14.6975 13.9758 14.6975H10.9358C10.1782 14.6975 9.97312 14.8223 9.95141 15.4201C9.92245 16.268 9.92245 17.1167 9.95141 17.9645C9.96669 18.4079 10.3149 18.7266 10.8594 18.8247C11.3717 18.9165 11.9499 19.0501 12.3327 18.5753C12.4984 18.3709 12.6898 18.3846 12.8957 18.5568C13.2447 18.8513 14.3192 19.0847 14.6328 18.8272C15.1556 18.3983 15.4065 18.5101 15.9735 18.8183C16.1598 18.9071 16.363 18.9549 16.5694 18.9585C16.7757 18.9621 16.9805 18.9215 17.1698 18.8393C17.3592 18.7571 17.5288 18.6353 17.6671 18.482C17.8055 18.3288 17.9094 18.1477 17.972 17.9509C18.0136 17.104 18.0125 16.2556 17.9687 15.4089C17.9463 15.267 17.9023 15.1295 17.8385 15.0009C17.758 14.7748 17.5956 14.683 17.265 14.6895ZM10.9486 15.3968C11.0114 15.4732 11.1224 15.5473 11.1256 15.6261C11.1457 15.985 11.136 16.3455 11.136 16.706C11.136 17.0528 11.1441 17.4013 11.128 17.7481C11.1248 17.8189 11.0275 17.8873 10.9736 17.9573C10.9036 17.8873 10.7725 17.8181 10.7717 17.7481C10.7569 17.0414 10.7563 16.3345 10.7701 15.6277C10.7709 15.5505 10.8867 15.4732 10.9486 15.3968Z"/>
</mask>
<path d="M13.9685 0C13.6112 8.62147e-05 13.2538 0.00276856 12.8965 0.00804683C12.4381 0.015289 12.192 0.225311 12.1743 0.568106C12.1518 0.98976 12.1695 1.41141 12.1695 1.86606H15.7346C15.7346 1.39773 15.7547 0.951135 15.7266 0.505341C15.7073 0.19071 15.4435 0.0144843 15.0389 0.00885152C14.6819 0.00321874 14.3248 0.000804684 13.9677 0.000804684M12.6118 2.18954C12.7887 2.62648 12.4895 2.84777 12.1276 3.06021C11.8948 3.19621 11.6767 3.35614 11.477 3.53738C10.2755 4.63497 9.69325 5.86614 10.1484 7.31537C10.2297 7.57448 10.3865 7.6807 10.7677 7.67667C12.73 7.65736 14.6923 7.66702 16.6546 7.66702C17.7058 7.66702 17.799 7.60264 17.9221 6.78428C17.932 6.70772 17.9357 6.63049 17.9333 6.55334C17.916 5.87136 17.7271 5.20476 17.3841 4.61517C17.0411 4.02557 16.5551 3.53201 15.971 3.18011C15.5922 2.91456 15.059 2.7158 15.2553 2.18874L12.6118 2.18954ZM12.7807 3.38852C12.8134 3.38669 12.8462 3.38723 12.8788 3.39013C12.383 3.88032 11.9371 4.41862 11.5478 4.99708C11.3007 5.587 11.1247 6.20424 11.0234 6.83578C10.5007 5.66899 11.7682 3.4376 12.7815 3.38771M10.4605 7.93739V14.3893H17.4782V7.93739H10.4605ZM11.3323 8.61171L11.5003 8.61493C11.5356 8.72702 11.5593 8.84242 11.5711 8.95934C11.5759 10.3981 11.5735 11.8377 11.5727 13.2765C11.581 13.3533 11.5755 13.4309 11.5566 13.5058C11.5381 13.5557 11.4634 13.5919 11.4135 13.6345C11.3596 13.5959 11.2736 13.5637 11.2583 13.5171C11.2391 13.4288 11.2337 13.3382 11.2422 13.2483C11.2422 11.8345 11.2398 10.4214 11.2454 9.00762C11.2603 8.87294 11.2894 8.74023 11.3323 8.61171ZM17.265 14.6895C16.1697 14.7096 15.0719 14.6975 13.9758 14.6975H10.9358C10.1782 14.6975 9.97312 14.8223 9.95141 15.4201C9.92245 16.268 9.92245 17.1167 9.95141 17.9645C9.96669 18.4079 10.3149 18.7266 10.8594 18.8247C11.3717 18.9165 11.9499 19.0501 12.3327 18.5753C12.4984 18.3709 12.6898 18.3846 12.8957 18.5568C13.2447 18.8513 14.3192 19.0847 14.6328 18.8272C15.1556 18.3983 15.4065 18.5101 15.9735 18.8183C16.1598 18.9071 16.363 18.9549 16.5694 18.9585C16.7757 18.9621 16.9805 18.9215 17.1698 18.8393C17.3592 18.7571 17.5288 18.6353 17.6671 18.482C17.8055 18.3288 17.9094 18.1477 17.972 17.9509C18.0136 17.104 18.0125 16.2556 17.9687 15.4089C17.9463 15.267 17.9023 15.1295 17.8385 15.0009C17.758 14.7748 17.5956 14.683 17.265 14.6895ZM10.9486 15.3968C11.0114 15.4732 11.1224 15.5473 11.1256 15.6261C11.1457 15.985 11.136 16.3455 11.136 16.706C11.136 17.0528 11.1441 17.4013 11.128 17.7481C11.1248 17.8189 11.0275 17.8873 10.9736 17.9573C10.9036 17.8873 10.7725 17.8181 10.7717 17.7481C10.7569 17.0414 10.7563 16.3345 10.7701 15.6277C10.7709 15.5505 10.8867 15.4732 10.9486 15.3968Z" fill="black"/>
<path d="M12.8965 0.00804683L12.8891 -0.491899L12.8886 -0.491891L12.8965 0.00804683ZM12.1743 0.568106L12.6736 0.59477L12.6736 0.593879L12.1743 0.568106ZM12.1695 1.86606H11.6695V2.36606H12.1695V1.86606ZM15.7346 1.86606V2.36606H16.2346V1.86606H15.7346ZM15.7266 0.505341L15.2275 0.535956L15.2275 0.536848L15.7266 0.505341ZM15.0389 0.00885152L15.0311 0.50879L15.032 0.508803L15.0389 0.00885152ZM12.6118 2.18954L12.6116 1.68954L11.87 1.68977L12.1483 2.3772L12.6118 2.18954ZM12.1276 3.06021L12.3798 3.49196L12.3808 3.49141L12.1276 3.06021ZM11.477 3.53738L11.141 3.16713L11.1398 3.16823L11.477 3.53738ZM10.1484 7.31537L10.6255 7.1658L10.6255 7.16554L10.1484 7.31537ZM10.7677 7.67667L10.7628 7.1767L10.7624 7.1767L10.7677 7.67667ZM17.9221 6.78428L18.4166 6.85864L18.418 6.84817L17.9221 6.78428ZM17.9333 6.55334L17.4335 6.56605L17.4336 6.56868L17.9333 6.55334ZM15.971 3.18011L15.684 3.58952L15.6982 3.59946L15.713 3.60838L15.971 3.18011ZM15.2553 2.18874L15.7239 2.36319L15.975 1.68852L15.2551 1.68874L15.2553 2.18874ZM12.8788 3.39013L13.2303 3.74568L13.9972 2.98744L12.923 2.89209L12.8788 3.39013ZM11.5478 4.99708L11.133 4.71789L11.1056 4.75863L11.0866 4.80393L11.5478 4.99708ZM11.0234 6.83578L10.5671 7.04021L11.2519 8.56872L11.5171 6.91494L11.0234 6.83578ZM10.4605 7.93739V7.43739H9.96048V7.93739H10.4605ZM10.4605 14.3893H9.96048V14.8893H10.4605V14.3893ZM17.4782 14.3893V14.8893H17.9782V14.3893H17.4782ZM17.4782 7.93739H17.9782V7.43739H17.4782V7.93739ZM11.3323 8.61171L11.3418 8.1118L10.9743 8.10477L10.858 8.45347L11.3323 8.61171ZM11.5003 8.61493L11.9773 8.46488L11.8694 8.12191L11.5099 8.11502L11.5003 8.61493ZM11.5711 8.95934L12.0711 8.95766L12.071 8.93334L12.0686 8.90915L11.5711 8.95934ZM11.5727 13.2765L11.0727 13.2762L11.0727 13.3031L11.0756 13.3299L11.5727 13.2765ZM11.5566 13.5058L12.0255 13.6796L12.0348 13.6543L12.0414 13.6281L11.5566 13.5058ZM11.4135 13.6345L11.1222 14.0409L11.4407 14.2692L11.7385 14.0145L11.4135 13.6345ZM11.2583 13.5171L10.7696 13.623L10.7751 13.6482L10.7831 13.6726L11.2583 13.5171ZM11.2422 13.2483L11.74 13.2952L11.7422 13.2718V13.2483H11.2422ZM11.2454 9.00762L10.7484 8.95277L10.7455 8.97912L10.7454 9.00563L11.2454 9.00762ZM17.265 14.6895L17.2742 15.1894L17.2748 15.1894L17.265 14.6895ZM9.95141 15.4201L9.45174 15.402L9.4517 15.4031L9.95141 15.4201ZM9.95141 17.9645L9.4517 17.9816L9.4517 17.9818L9.95141 17.9645ZM10.8594 18.8247L10.7707 19.3168L10.7712 19.3169L10.8594 18.8247ZM12.3327 18.5753L11.9443 18.2605L11.9435 18.2614L12.3327 18.5753ZM12.8957 18.5568L13.2181 18.1746L13.2165 18.1733L12.8957 18.5568ZM14.6328 18.8272L14.3157 18.4406L14.3155 18.4407L14.6328 18.8272ZM15.9735 18.8183L15.7347 19.2576L15.7464 19.264L15.7584 19.2697L15.9735 18.8183ZM17.972 17.9509L18.4485 18.1023L18.4682 18.0403L18.4713 17.9754L17.972 17.9509ZM17.9687 15.4089L18.4681 15.3831L18.4667 15.3567L18.4626 15.3307L17.9687 15.4089ZM17.8385 15.0009L17.3674 15.1684L17.3774 15.1966L17.3907 15.2234L17.8385 15.0009ZM10.9486 15.3968L11.3352 15.0796L10.9461 14.6055L10.5601 15.0821L10.9486 15.3968ZM11.1256 15.6261L10.6259 15.6465L10.6264 15.6541L11.1256 15.6261ZM11.128 17.7481L10.6285 17.7249L10.6285 17.7254L11.128 17.7481ZM10.9736 17.9573L10.6199 18.3108L11.0225 18.7135L11.3698 18.2623L10.9736 17.9573ZM10.7717 17.7481L11.2717 17.7423L11.2716 17.7376L10.7717 17.7481ZM10.7701 15.6277L11.27 15.6375L11.2701 15.6329L10.7701 15.6277ZM13.9684 -0.5C13.6086 -0.499913 13.2488 -0.497213 12.8891 -0.491899L12.9039 0.507992C13.2588 0.50275 13.6137 0.500086 13.9686 0.5L13.9684 -0.5ZM12.8886 -0.491891C12.5911 -0.487192 12.2943 -0.416283 12.0589 -0.229085C11.8108 -0.0317456 11.6901 0.247899 11.675 0.542333L12.6736 0.593879C12.6751 0.565391 12.6804 0.554319 12.6807 0.553784C12.6809 0.553283 12.6807 0.553772 12.6801 0.55455C12.6795 0.555317 12.6796 0.554968 12.6813 0.553574C12.688 0.54825 12.7434 0.510527 12.9044 0.507984L12.8886 -0.491891ZM11.675 0.541442C11.6516 0.98016 11.6695 1.43988 11.6695 1.86606H12.6695C12.6695 1.38295 12.652 0.999359 12.6736 0.59477L11.675 0.541442ZM12.1695 2.36606H15.7346V1.36606H12.1695V2.36606ZM16.2346 1.86606C16.2346 1.42813 16.255 0.940141 16.2256 0.473833L15.2275 0.536848C15.2544 0.962129 15.2346 1.36734 15.2346 1.86606H16.2346ZM16.2256 0.474725C16.2068 0.16744 16.0596 -0.0947085 15.8159 -0.267032C15.5884 -0.427863 15.3117 -0.487399 15.0459 -0.4911L15.032 0.508803C15.1707 0.510735 15.2281 0.542128 15.2385 0.549475C15.2414 0.55148 15.236 0.548088 15.2306 0.538407C15.2253 0.528747 15.2268 0.525324 15.2275 0.535956L16.2256 0.474725ZM15.0468 -0.491086C14.6868 -0.496766 14.327 -0.499195 13.9677 -0.499195V0.500805C14.3225 0.500805 14.677 0.503204 15.0311 0.508789L15.0468 -0.491086ZM12.1483 2.3772C12.1684 2.42686 12.1631 2.44015 12.1643 2.42874C12.1657 2.41518 12.1715 2.4092 12.1655 2.41762C12.1563 2.43051 12.1327 2.45689 12.0798 2.49678C12.0272 2.53647 11.9606 2.57849 11.8745 2.62901L12.3808 3.49141C12.555 3.38914 12.8105 3.23407 12.9781 3.00051C13.0699 2.87244 13.14 2.71593 13.159 2.53135C13.1779 2.34892 13.1436 2.17069 13.0752 2.00188L12.1483 2.3772ZM11.8755 2.62846C11.6126 2.78199 11.3664 2.96253 11.141 3.16713L11.813 3.90764C11.987 3.74974 12.177 3.61043 12.3798 3.49196L11.8755 2.62846ZM11.1398 3.16823C10.5032 3.74979 9.99986 4.39396 9.72431 5.1163C9.44478 5.84905 9.41059 6.63477 9.67142 7.4652L10.6255 7.16554C10.4311 6.54674 10.4604 5.99225 10.6586 5.47272C10.8608 4.94277 11.2494 4.42257 11.8143 3.90654L11.1398 3.16823ZM9.67134 7.46494C9.73454 7.66656 9.85192 7.88102 10.0876 8.02298C10.3026 8.15252 10.5484 8.17901 10.773 8.17664L10.7624 7.1767C10.6889 7.17748 10.6431 7.17259 10.6164 7.16743C10.591 7.16253 10.5913 7.15899 10.6036 7.16641C10.6183 7.17528 10.6305 7.18779 10.6369 7.19706C10.6412 7.20328 10.6354 7.19734 10.6255 7.1658L9.67134 7.46494ZM10.7726 8.17665C12.7316 8.15737 14.689 8.16702 16.6546 8.16702V7.16702C14.6956 7.16702 12.7284 7.15735 10.7628 7.1767L10.7726 8.17665ZM16.6546 8.16702C16.9153 8.16702 17.146 8.16345 17.3378 8.14068C17.5282 8.11807 17.738 8.07098 17.922 7.94291C18.1196 7.80539 18.2269 7.61799 18.2918 7.43291C18.3518 7.26175 18.3861 7.06071 18.4165 6.85862L17.4276 6.70994C17.3965 6.91703 17.373 7.03092 17.3481 7.10199C17.3281 7.15915 17.3233 7.14129 17.3508 7.12215C17.3647 7.11248 17.3464 7.13263 17.2198 7.14766C17.0946 7.16253 16.9195 7.16702 16.6546 7.16702V8.16702ZM18.418 6.84817C18.4312 6.74534 18.4363 6.64162 18.4331 6.53799L17.4336 6.56868C17.4351 6.61937 17.4327 6.6701 17.4262 6.72039L18.418 6.84817ZM18.4332 6.54062C18.4137 5.77467 18.2016 5.02598 17.8163 4.36375L16.9519 4.86658C17.2527 5.38355 17.4183 5.96804 17.4335 6.56605L18.4332 6.54062ZM17.8163 4.36375C17.4311 3.70152 16.8852 3.14712 16.2291 2.75183L15.713 3.60838C16.2251 3.9169 16.6512 4.34962 16.9519 4.86658L17.8163 4.36375ZM16.2581 2.77069C16.1526 2.69675 16.0224 2.61812 15.9416 2.56633C15.8458 2.50497 15.7839 2.46001 15.7424 2.42052C15.7033 2.3832 15.7065 2.37305 15.711 2.38843C15.7177 2.41125 15.706 2.41125 15.7239 2.36319L14.7867 2.01428C14.7065 2.22976 14.6878 2.45225 14.7511 2.66887C14.8122 2.87805 14.9356 3.03301 15.0526 3.14447C15.1673 3.25374 15.2974 3.3412 15.402 3.40826C15.5216 3.4849 15.6001 3.53069 15.684 3.58952L16.2581 2.77069ZM15.2551 1.68874L12.6116 1.68954L12.6119 2.68954L15.2554 2.68874L15.2551 1.68874ZM12.8085 3.88774C12.8172 3.88726 12.8259 3.8874 12.8346 3.88817L12.923 2.89209C12.8664 2.88706 12.8095 2.88613 12.7528 2.88929L12.8085 3.88774ZM12.5272 3.03457C12.0079 3.54807 11.5408 4.11195 11.133 4.71789L11.9626 5.27627C12.3334 4.72529 12.7581 4.21258 13.2303 3.74568L12.5272 3.03457ZM11.0866 4.80393C10.8242 5.43042 10.6373 6.08593 10.5297 6.75661L11.5171 6.91494C11.6121 6.32255 11.7772 5.74357 12.009 5.19023L11.0866 4.80393ZM11.4797 6.63135C11.4026 6.45927 11.3768 6.20887 11.4286 5.89246C11.4795 5.58102 11.5999 5.24306 11.7677 4.92799C11.9359 4.61225 12.1409 4.33975 12.3455 4.1503C12.5601 3.95158 12.7218 3.89126 12.8061 3.88711L12.7569 2.88832C12.3345 2.90911 11.9578 3.14642 11.666 3.41659C11.3643 3.69601 11.0951 4.06364 10.8851 4.45783C10.6748 4.85269 10.513 5.29447 10.4417 5.73113C10.3711 6.16282 10.3829 6.62889 10.5671 7.04021L11.4797 6.63135ZM9.96048 7.93739V14.3893H10.9605V7.93739H9.96048ZM10.4605 14.8893H17.4782V13.8893H10.4605V14.8893ZM17.9782 14.3893V7.93739H16.9782V14.3893H17.9782ZM17.4782 7.43739H10.4605V8.43739H17.4782V7.43739ZM11.3227 9.11162L11.4908 9.11484L11.5099 8.11502L11.3418 8.1118L11.3227 9.11162ZM11.0234 8.76498C11.0484 8.84457 11.0653 8.92651 11.0736 9.00953L12.0686 8.90915C12.0534 8.75833 12.0228 8.60947 11.9773 8.46488L11.0234 8.76498ZM11.0711 8.96101C11.0759 10.3985 11.0735 11.8366 11.0727 13.2762L12.0727 13.2767C12.0735 11.8387 12.0759 10.3977 12.0711 8.95766L11.0711 8.96101ZM11.0756 13.3299C11.0775 13.3479 11.0763 13.366 11.0718 13.3834L12.0414 13.6281C12.0748 13.4958 12.0845 13.3586 12.0699 13.223L11.0756 13.3299ZM11.0878 13.332C11.114 13.2614 11.1515 13.2173 11.1688 13.1989C11.1784 13.1886 11.1861 13.1818 11.1901 13.1784C11.1941 13.1749 11.1962 13.1734 11.1951 13.1742C11.194 13.1751 11.1914 13.1769 11.186 13.1808C11.1833 13.1827 11.1804 13.1847 11.1768 13.1873C11.1733 13.1897 11.169 13.1928 11.1646 13.1959C11.1488 13.2072 11.1192 13.2284 11.0885 13.2546L11.7385 14.0145C11.7328 14.0194 11.7312 14.0201 11.7439 14.011C11.7506 14.0063 11.777 13.9879 11.7986 13.9716C11.8218 13.954 11.8598 13.9239 11.8981 13.8831C11.9362 13.8425 11.99 13.7751 12.0255 13.6796L11.0878 13.332ZM11.7048 13.2282C11.6699 13.2031 11.636 13.1835 11.6188 13.1735C11.6139 13.1707 11.6092 13.168 11.6053 13.1658C11.6012 13.1634 11.598 13.1616 11.595 13.1599C11.5889 13.1563 11.5861 13.1546 11.585 13.1539C11.5797 13.1506 11.5968 13.1604 11.6201 13.1819C11.6329 13.1936 11.6522 13.2131 11.6723 13.241C11.6927 13.2691 11.7164 13.3093 11.7335 13.3615L10.7831 13.6726C10.824 13.7975 10.8993 13.8775 10.9427 13.9175C10.9881 13.9593 11.033 13.9883 11.0578 14.0037C11.0818 14.0186 11.1113 14.0352 11.1185 14.0394C11.133 14.0478 11.1302 14.0466 11.1222 14.0409L11.7048 13.2282ZM11.7469 13.4111C11.7387 13.3731 11.7363 13.334 11.74 13.2952L10.7444 13.2014C10.7311 13.3424 10.7396 13.4846 10.7696 13.623L11.7469 13.4111ZM11.7422 13.2483C11.7422 11.8333 11.7398 10.4221 11.7454 9.00961L10.7454 9.00563C10.7398 10.4208 10.7422 11.8356 10.7422 13.2483H11.7422ZM11.7424 9.06246C11.7534 8.96296 11.7749 8.86491 11.8066 8.76996L10.858 8.45347C10.8039 8.61556 10.7672 8.78293 10.7484 8.95277L11.7424 9.06246ZM17.2559 14.1896C16.1666 14.2096 15.0793 14.1975 13.9758 14.1975V15.1975C15.0645 15.1975 16.1728 15.2096 17.2742 15.1894L17.2559 14.1896ZM13.9758 14.1975H10.9358V15.1975H13.9758V14.1975ZM10.9358 14.1975C10.7373 14.1975 10.55 14.2053 10.3832 14.2332C10.2162 14.261 10.0368 14.314 9.87754 14.4274C9.52495 14.6786 9.46352 15.0775 9.45174 15.402L10.4511 15.4383C10.461 15.1649 10.513 15.2025 10.4577 15.2419C10.4472 15.2494 10.4624 15.2338 10.5477 15.2195C10.633 15.2053 10.7555 15.1975 10.9358 15.1975V14.1975ZM9.4517 15.4031C9.42235 16.2623 9.42235 17.1223 9.4517 17.9816L10.4511 17.9475C10.4225 17.111 10.4225 16.2737 10.4511 15.4372L9.4517 15.4031ZM9.4517 17.9818C9.47795 18.7434 10.0874 19.1936 10.7707 19.3168L10.9481 18.3327C10.5424 18.2595 10.4554 18.0725 10.4511 17.9473L9.4517 17.9818ZM10.7712 19.3169C11.0005 19.358 11.3433 19.4303 11.6728 19.4117C12.0341 19.3913 12.4213 19.262 12.722 18.8891L11.9435 18.2614C11.8613 18.3634 11.768 18.4047 11.6164 18.4133C11.433 18.4236 11.2306 18.3833 10.9475 18.3326L10.7712 19.3169ZM12.7211 18.8901C12.7319 18.8769 12.728 18.8859 12.705 18.8987C12.6789 18.9133 12.6425 18.9246 12.6023 18.9248C12.5647 18.925 12.542 18.9156 12.5387 18.9141C12.5366 18.9132 12.5489 18.9185 12.5749 18.9403L13.2165 18.1733C13.0699 18.0507 12.8583 17.9231 12.5959 17.9248C12.3104 17.9267 12.0916 18.0787 11.9443 18.2605L12.7211 18.8901ZM12.5732 18.9389C12.7216 19.0641 12.9129 19.158 13.0914 19.2264C13.2773 19.2976 13.4847 19.3545 13.6893 19.3911C13.8921 19.4275 14.1087 19.447 14.3105 19.4339C14.4938 19.422 14.7491 19.3786 14.9501 19.2136L14.3155 18.4407C14.3597 18.4044 14.3631 18.4284 14.2458 18.436C14.147 18.4424 14.0144 18.4335 13.8657 18.4068C13.7189 18.3805 13.5726 18.3399 13.4491 18.2926C13.3182 18.2424 13.2443 18.1967 13.2181 18.1747L12.5732 18.9389ZM14.95 19.2137C15.1693 19.0338 15.2392 19.0443 15.2543 19.0453C15.2773 19.0468 15.3206 19.0548 15.4035 19.0899C15.4892 19.1261 15.5907 19.1793 15.7347 19.2576L16.2122 18.379C15.9554 18.2394 15.6491 18.0687 15.3188 18.0474C14.936 18.0226 14.6191 18.1917 14.3157 18.4406L14.95 19.2137ZM15.7584 19.2697C16.0093 19.3892 16.2828 19.4536 16.5606 19.4584L16.5781 18.4586C16.4432 18.4562 16.3103 18.425 16.1885 18.3669L15.7584 19.2697ZM16.5606 19.4584C16.8384 19.4633 17.114 19.4086 17.3689 19.2979L16.9708 18.3806C16.8469 18.4344 16.7131 18.461 16.5781 18.4586L16.5606 19.4584ZM17.3689 19.2979C17.6238 19.1873 17.852 19.0233 18.0382 18.8171L17.296 18.147C17.2055 18.2472 17.0946 18.3269 16.9708 18.3806L17.3689 19.2979ZM18.0382 18.8171C18.2244 18.6109 18.3643 18.3671 18.4485 18.1023L17.4954 17.7994C17.4545 17.9282 17.3865 18.0467 17.296 18.147L18.0382 18.8171ZM18.4713 17.9754C18.5138 17.1118 18.5127 16.2466 18.4681 15.3831L17.4694 15.4347C17.5123 16.2646 17.5133 17.0962 17.4726 17.9263L18.4713 17.9754ZM18.4626 15.3307C18.4322 15.1387 18.3727 14.9525 18.2862 14.7784L17.3907 15.2234C17.432 15.3065 17.4604 15.3954 17.4749 15.4871L18.4626 15.3307ZM18.3095 14.8333C18.238 14.6323 18.1085 14.4415 17.8858 14.3195C17.683 14.2084 17.4581 14.1856 17.2553 14.1896L17.2748 15.1894C17.3349 15.1882 17.3729 15.1919 17.395 15.1959C17.4162 15.1996 17.4163 15.2025 17.4053 15.1965C17.3923 15.1894 17.3785 15.1779 17.3684 15.1651C17.3598 15.1542 17.3614 15.1516 17.3674 15.1684L18.3095 14.8333ZM10.5621 15.714C10.5961 15.7554 10.6314 15.7904 10.652 15.8106C10.6577 15.8161 10.6633 15.8216 10.6679 15.8261C10.6729 15.8309 10.677 15.8349 10.6809 15.8388C10.6888 15.8466 10.6936 15.8514 10.6968 15.8548C10.6999 15.8581 10.6995 15.8579 10.697 15.8548C10.6946 15.8519 10.6879 15.8434 10.6796 15.8299C10.6647 15.8056 10.6299 15.7413 10.626 15.6465L11.6252 15.6058C11.6197 15.4715 11.5698 15.3684 11.5312 15.3056C11.4927 15.2432 11.4493 15.1951 11.4221 15.1664C11.396 15.1389 11.364 15.1082 11.3526 15.097C11.3346 15.0794 11.3325 15.0764 11.3352 15.0796L10.5621 15.714ZM10.6264 15.6541C10.6454 15.9944 10.636 16.3276 10.636 16.706H11.636C11.636 16.3634 11.6459 15.9757 11.6248 15.5982L10.6264 15.6541ZM10.636 16.706C10.636 17.0683 10.6439 17.3935 10.6285 17.7249L11.6275 17.7712C11.6443 17.409 11.636 17.0374 11.636 16.706H10.636ZM10.6285 17.7254C10.6327 17.6326 10.6661 17.5691 10.6807 17.5447C10.6888 17.5311 10.6955 17.5222 10.6982 17.5188C10.701 17.5152 10.7019 17.5144 10.6994 17.5171C10.6969 17.5199 10.6929 17.5241 10.6859 17.5313C10.6825 17.5349 10.6789 17.5386 10.6745 17.5431C10.6703 17.5474 10.6653 17.5526 10.6601 17.5579C10.65 17.5684 10.6371 17.5819 10.6236 17.597C10.6101 17.612 10.594 17.6307 10.5774 17.6523L11.3698 18.2623C11.3652 18.2683 11.3649 18.2677 11.3798 18.2522C11.388 18.2437 11.4176 18.2138 11.4402 18.1889C11.4644 18.1621 11.5041 18.1163 11.5395 18.0569C11.5749 17.9976 11.6216 17.899 11.6275 17.7708L10.6285 17.7254ZM11.3272 17.6038C11.2872 17.5637 11.2456 17.5307 11.2219 17.512C11.2122 17.5044 11.1929 17.4894 11.1875 17.4852C11.1778 17.4776 11.1718 17.4727 11.1675 17.4691C11.1631 17.4655 11.1633 17.4654 11.1661 17.4681C11.1686 17.4706 11.1776 17.4795 11.1891 17.4943C11.2003 17.5088 11.2192 17.5358 11.2362 17.5748C11.2537 17.6151 11.2709 17.6723 11.2717 17.7423L10.2718 17.7538C10.2737 17.9271 10.3543 18.0496 10.3984 18.1066C10.4453 18.1672 10.4969 18.212 10.526 18.2363C10.5543 18.2599 10.5915 18.2885 10.6034 18.2978C10.6239 18.314 10.625 18.3158 10.6199 18.3108L11.3272 17.6038ZM11.2716 17.7376C11.2569 17.0376 11.2564 16.3375 11.27 15.6375L10.2702 15.618C10.2563 16.3315 10.2568 17.0451 10.2718 17.7586L11.2716 17.7376ZM11.2701 15.6329C11.269 15.738 11.2297 15.8089 11.2149 15.8328C11.2063 15.8467 11.1994 15.8554 11.1971 15.8581C11.1948 15.861 11.1945 15.861 11.198 15.8573C11.2016 15.8536 11.2066 15.8485 11.2149 15.8404C11.219 15.8364 11.2233 15.8323 11.2284 15.8273C11.2333 15.8225 11.239 15.817 11.2448 15.8113C11.2564 15.8 11.2708 15.7856 11.2858 15.7698C11.3009 15.7539 11.3188 15.7342 11.3372 15.7115L10.5601 15.0821C10.564 15.0773 10.5628 15.0795 10.5447 15.0973C10.5337 15.108 10.5008 15.1395 10.4749 15.1666C10.4478 15.195 10.4035 15.2437 10.3644 15.3068C10.3257 15.3694 10.2716 15.4788 10.2701 15.6225L11.2701 15.6329Z" fill="black" mask="url(#path-2-inside-1_188_237)"/>
<path d="M6.99945 9.3177C7.31263 8.29157 8.31667 7.75698 9.34222 8.07034M6.33907 10.5631L6.2108 10.4139C5.6147 9.72025 4.73306 9.2568 3.84841 9.49019C3.40378 9.60618 2.66567 9.8866 2.2709 10.1165L2.22502 10.2669C3.12358 11.1433 3.77097 12.5487 3.38247 13.8216C2.99398 15.0946 1.67232 15.8984 0.437886 16.1225L0.391849 16.2733C0.591548 16.6844 1.04682 17.3289 1.35037 17.6751C1.95343 18.3625 2.94394 18.4711 3.8255 18.2295L4.0153 18.177L4.14357 18.3261C4.73967 19.0198 5.62131 19.4832 6.50596 19.2498C6.95075 19.1333 7.68886 18.8529 8.08347 18.6235L8.1295 18.4726C7.2308 17.5968 6.5834 16.1913 6.9719 14.9184C7.36039 13.6455 8.68205 12.8417 9.91648 12.6175L9.96252 12.4667C9.76282 12.0557 9.30755 11.4112 9.004 11.0649C8.40094 10.3775 7.41044 10.2689 6.52888 10.5106L6.33907 10.5631Z" stroke="black" stroke-width="0.5"/>
</svg>
