<svg width="31" height="32" viewBox="0 0 31 32" fill="none" xmlns="http://www.w3.org/2000/svg">
<path d="M15.1426 20.5C17.6279 20.5 19.6426 18.4853 19.6426 16C19.6426 13.5147 17.6279 11.5 15.1426 11.5C12.6573 11.5 10.6426 13.5147 10.6426 16C10.6426 18.4853 12.6573 20.5 15.1426 20.5Z" fill="#8895B3" stroke="#8895B3" stroke-width="1.5"/>
<path d="M2.63378 13.96C3.34328 14.404 3.79928 15.163 3.79928 16C3.79928 16.837 3.34328 17.596 2.63378 18.04C2.15228 18.3445 1.84028 18.586 1.61978 18.874C1.37991 19.1867 1.204 19.5435 1.10208 19.9242C1.00016 20.3048 0.97423 20.7018 1.02578 21.0925C1.10378 21.6835 1.45328 22.2895 2.15078 23.5C2.85128 24.7105 3.20078 25.315 3.67328 25.6795C3.98593 25.9194 4.34278 26.0953 4.72344 26.1972C5.10409 26.2991 5.5011 26.325 5.89178 26.2735C6.25178 26.2255 6.61628 26.0785 7.12028 25.8115C7.48097 25.6141 7.88591 25.5116 8.29708 25.5137C8.70824 25.5158 9.11212 25.6224 9.47078 25.8235C10.1953 26.2435 10.6258 27.016 10.6558 27.853C10.6768 28.423 10.7308 28.813 10.8703 29.1475C11.021 29.5117 11.2421 29.8427 11.5209 30.1214C11.7996 30.4002 12.1305 30.6212 12.4948 30.772C13.0453 31 13.7443 31 15.1423 31C16.5403 31 17.2393 31 17.7898 30.772C18.154 30.6212 18.4849 30.4002 18.7637 30.1214C19.0424 29.8427 19.2635 29.5117 19.4143 29.1475C19.5523 28.813 19.6078 28.423 19.6288 27.853C19.6588 27.016 20.0893 26.242 20.8138 25.8235C21.1724 25.6224 21.5763 25.5158 21.9875 25.5137C22.3986 25.5116 22.8036 25.6141 23.1643 25.8115C23.6683 26.0785 24.0343 26.2255 24.3943 26.2735C25.1828 26.3772 25.9802 26.1635 26.6113 25.6795C27.0838 25.3165 27.4333 24.7105 28.1323 23.5C28.4443 22.96 28.6858 22.5415 28.8658 22.1905M27.6508 18.0415C27.2996 17.8281 27.0084 17.5289 26.8045 17.172C26.6007 16.8152 26.4908 16.4124 26.4853 16.0015C26.4853 15.163 26.9413 14.404 27.6508 13.9585C28.1323 13.6555 28.4428 13.414 28.6648 13.126C28.9046 12.8133 29.0806 12.4565 29.1825 12.0758C29.2844 11.6952 29.3103 11.2982 29.2588 10.9075C29.1808 10.3165 28.8313 9.7105 28.1338 8.5C27.4333 7.2895 27.0838 6.685 26.6113 6.3205C26.2986 6.08064 25.9418 5.90472 25.5611 5.8028C25.1805 5.70088 24.7835 5.67495 24.3928 5.7265C24.0328 5.7745 23.6683 5.9215 23.1628 6.1885C22.8023 6.38562 22.3976 6.48793 21.9867 6.48584C21.5759 6.48374 21.1722 6.3773 20.8138 6.1765C20.4605 5.96636 20.1663 5.66986 19.9591 5.31486C19.7518 4.95985 19.6381 4.55798 19.6288 4.147C19.6078 3.577 19.5538 3.187 19.4143 2.8525C19.2635 2.48827 19.0424 2.15733 18.7637 1.87859C18.4849 1.59984 18.154 1.37877 17.7898 1.228C17.2393 1 16.5403 1 15.1423 1C13.7443 1 13.0453 1 12.4948 1.228C12.1305 1.37877 11.7996 1.59984 11.5209 1.87859C11.2421 2.15733 11.021 2.48827 10.8703 2.8525C10.7323 3.187 10.6768 3.577 10.6558 4.147C10.6464 4.55798 10.5328 4.95985 10.3255 5.31486C10.1182 5.66986 9.8241 5.96636 9.47078 6.1765C9.11212 6.37756 8.70824 6.48415 8.29708 6.48625C7.88591 6.48835 7.48097 6.38589 7.12028 6.1885C6.61628 5.9215 6.25028 5.7745 5.89028 5.7265C5.10176 5.62281 4.30433 5.83646 3.67328 6.3205C3.20228 6.685 2.85128 7.2895 2.15228 8.5C1.84028 9.04 1.59878 9.4585 1.41878 9.8095" stroke="#002642" stroke-width="1.5" stroke-linecap="round"/>
</svg>
