<svg width="16" height="16" viewBox="0 0 16 16" fill="none" xmlns="http://www.w3.org/2000/svg">
<path d="M6.10281 3.60537C6.94747 2.09071 7.36947 1.33337 8.00081 1.33337C8.63214 1.33337 9.05414 2.09071 9.89881 3.60537L10.1175 3.99737C10.3575 4.42804 10.4775 4.64337 10.6641 4.78537C10.8508 4.92737 11.0841 4.98004 11.5508 5.08537L11.9748 5.18137C13.6148 5.55271 14.4341 5.73804 14.6295 6.36537C14.8241 6.99204 14.2655 7.64604 13.1475 8.95337L12.8581 9.29137C12.5408 9.66271 12.3815 9.84871 12.3101 10.078C12.2388 10.308 12.2628 10.556 12.3108 11.0514L12.3548 11.5027C12.5235 13.2474 12.6081 14.1194 12.0975 14.5067C11.5868 14.8947 10.8188 14.5407 9.28414 13.834L8.88614 13.6514C8.45014 13.45 8.23214 13.35 8.00081 13.35C7.76947 13.35 7.55147 13.45 7.11547 13.6514L6.71814 13.834C5.18281 14.5407 4.41481 14.894 3.90481 14.5074C3.39347 14.1194 3.47814 13.2474 3.64681 11.5027L3.69081 11.052C3.73881 10.556 3.76281 10.308 3.69081 10.0787C3.62014 9.84871 3.46081 9.66271 3.14347 9.29204L2.85414 8.95337C1.73614 7.64671 1.17747 6.99271 1.37214 6.36537C1.56747 5.73804 2.38747 5.55204 4.02747 5.18137L4.45147 5.08537C4.91747 4.98004 5.15014 4.92737 5.33747 4.78537C5.52414 4.64337 5.64414 4.42804 5.88414 3.99737L6.10281 3.60537Z" fill="#E9D628"/>
</svg>
