<svg width="30" height="30" viewBox="0 0 30 30" fill="none" xmlns="http://www.w3.org/2000/svg">
<path d="M2.28804 21.7633C2.08122 21.7634 1.8788 21.7036 1.7052 21.5912C1.53159 21.4788 1.39424 21.3185 1.3097 21.1298C0.286806 18.8453 -0.148143 16.3411 0.04449 13.8455C0.237122 11.3499 1.05121 8.94217 2.41257 6.84171C3.77393 4.74126 5.63928 3.01487 7.83864 1.81987C10.038 0.624864 12.5014 -0.000762021 15.0045 6.96551e-07C15.2886 6.96551e-07 15.5612 0.112882 15.7621 0.313813C15.963 0.514743 16.0759 0.787264 16.0759 1.07142V14.9999C16.0759 15.2068 16.0161 15.4093 15.9035 15.5829C15.791 15.7565 15.6306 15.8938 15.4418 15.9782L2.72532 21.6668C2.58802 21.7295 2.43898 21.7624 2.28804 21.7633Z" fill="#002642"/>
<path d="M18.8617 2.42286C18.784 2.4071 18.7038 2.40878 18.6269 2.42778C18.5499 2.44678 18.4781 2.48261 18.4167 2.53271C18.3553 2.5828 18.3057 2.6459 18.2716 2.71746C18.2375 2.78902 18.2197 2.86725 18.2195 2.94652V15C18.219 15.6204 18.0392 16.2274 17.7018 16.7479C17.3644 17.2685 16.8838 17.6805 16.3178 17.9344L4.76851 23.1026C4.69692 23.1346 4.63322 23.1819 4.5819 23.2411C4.53058 23.3004 4.4929 23.3702 4.4715 23.4456C4.45011 23.5211 4.44553 23.6002 4.45809 23.6776C4.47065 23.755 4.50003 23.8287 4.54418 23.8935C5.42805 25.1934 6.52517 26.3347 7.78925 27.2691C10.1842 29.0507 13.0918 30.0088 16.0767 29.9999C23.7568 29.9999 30.0052 23.7515 30.0052 16.0714C30.0052 9.34491 25.2119 3.7166 18.8617 2.42286Z" fill="#8895B3"/>
</svg>
