<svg width="24" height="23" viewBox="0 0 24 23" fill="none" xmlns="http://www.w3.org/2000/svg">
<g filter="url(#filter0_d_321_1017)">
<path d="M12 20.9413C9.68333 20.358 7.77067 19.0286 6.262 16.9533C4.75333 14.8779 3.99933 12.574 4 10.0413V3.94128L12 0.941284L20 3.94128V10.0413C20 12.5746 19.246 14.879 17.738 16.9543C16.23 19.0296 14.3173 20.3586 12 20.9413ZM12 18.8413C13.6167 18.3413 14.9667 17.3536 16.05 15.8783C17.1333 14.403 17.7667 12.7573 17.95 10.9413H12V3.06628L6 5.31628V10.4913C6 10.608 6.01667 10.758 6.05 10.9413H12V18.8413Z" fill="black"/>
</g>
<defs>
<filter id="filter0_d_321_1017" x="0" y="0.941284" width="24" height="28" filterUnits="userSpaceOnUse" color-interpolation-filters="sRGB">
<feFlood flood-opacity="0" result="BackgroundImageFix"/>
<feColorMatrix in="SourceAlpha" type="matrix" values="0 0 0 0 0 0 0 0 0 0 0 0 0 0 0 0 0 0 127 0" result="hardAlpha"/>
<feOffset dy="4"/>
<feGaussianBlur stdDeviation="2"/>
<feComposite in2="hardAlpha" operator="out"/>
<feColorMatrix type="matrix" values="0 0 0 0 0 0 0 0 0 0 0 0 0 0 0 0 0 0 0.25 0"/>
<feBlend mode="normal" in2="BackgroundImageFix" result="effect1_dropShadow_321_1017"/>
<feBlend mode="normal" in="SourceGraphic" in2="effect1_dropShadow_321_1017" result="shape"/>
</filter>
</defs>
</svg>
