<svg width="137" height="240" viewBox="0 0 137 240" fill="none" xmlns="http://www.w3.org/2000/svg">
<path d="M59.8301 0.96582L63.5898 1.30762L66.666 3.0166L69.4004 6.09277L70.7676 9.51074V14.2959L69.0586 17.7139L67.3496 19.7646L68.0332 21.8154L72.1348 29.6768L77.2617 39.5889L85.4648 55.6533L89.5664 63.8564L92.9844 70.3506L97.0859 78.5537L103.922 91.542L115.885 115.468L117.594 114.101L120.67 110.341L126.139 104.53L127.506 102.821L127.164 101.454L122.379 92.2256L118.277 84.7061L112.125 72.7432L108.023 65.2236L102.213 53.9443L98.1113 46.4248L96.7441 43.6904L91.959 43.0068L89.2246 41.6396L87.5156 40.2725L85.123 36.5127L84.7812 35.4873V30.0186L86.4902 26.6006L88.8828 24.208L91.2754 22.8408L92.6426 22.499H97.4277L101.529 24.5498L103.922 27.2842L105.289 30.0186L105.631 31.3857V34.8037L104.264 38.2217L102.555 40.6143L102.896 42.3232L107.34 50.8682L110.758 57.3623L115.543 66.5908L121.695 78.2119L126.139 86.7568L129.557 93.251L134.684 102.821L134.342 104.53L131.266 107.606L128.873 110.341L125.113 114.442L118.961 121.62L130.24 144.179L132.975 150.673L135.025 157.851L136.393 166.054L136.734 170.155V175.966L136.051 182.802L134.342 190.663L131.607 197.841L127.506 205.702L123.404 211.171L120.328 214.589L115.543 219.374L110.758 223.134L104.947 226.894L97.0859 230.653L91.6172 232.704L108.023 233.729L115.543 234.755L118.619 235.78L118.277 236.806L113.834 237.831L109.732 238.515L98.7949 239.198L86.4902 239.54H68.7168L52.6523 239.198L38.9805 238.515L30.7773 237.147L29.752 236.464V235.438L34.8789 234.364L40.3477 233.681L44.4492 233.388L53.6777 233.046L52.6523 232.362L45.8164 229.628L40.3477 226.552L35.5625 223.134L31.8027 220.058L25.6504 213.905L22.2324 209.462L18.8145 204.335L15.0547 197.157L12.6621 190.663L10.9531 183.485L10.2695 178.358V166.737L11.2949 160.243L13.0039 153.749L14.7129 148.622L9.58594 143.153L6.50977 139.394L1.72461 134.267L0.015625 132.216L0.699219 130.507L6.50977 121.62L10.9531 114.784L16.4219 106.239L19.1562 102.138L18.8145 100.771L17.1055 97.3525L16.7637 95.9854V92.9092L18.1309 89.1494L20.5234 86.415L23.5996 84.7061L25.6504 84.0225H29.4102L32.8281 85.3896L35.5625 87.7822L37.2715 90.5166L37.9551 92.5674V96.6689L36.5879 100.087L34.5371 102.479L31.1191 104.53L30.0938 104.872H24.2832L23.5996 106.581L20.1816 111.708L14.7129 120.253L8.90234 129.14L7.53516 131.532L11.6367 135.976L14.7129 139.394L17.1055 142.47L17.7891 142.812L18.4727 141.103L23.2578 133.241L26.6758 128.114L30.7773 121.62L35.9043 113.417L41.0312 105.556L46.1582 97.3525L51.9688 88.4658L57.4375 80.2627V79.2373L55.3867 76.1611L54.7031 74.4521V69.3252L56.0703 66.249L58.4629 63.5146L61.5391 61.8057L62.9062 61.4639H67.3496L70.7676 62.8311L72.8184 64.54L74.8691 67.958L75.5527 70.0088V74.1104L73.502 78.2119L71.1094 80.6045L68.7168 81.9717L63.248 82.6553L58.8047 90.1748L54.0195 98.3779L48.8926 107.265L39.3223 123.671L37.6133 126.405L41.0312 125.722H44.791L50.2598 126.747L55.3867 128.798L59.1465 131.19L61.5391 133.241L63.9316 137.001L65.2988 140.077L65.6406 142.128L68.0332 142.812L70.7676 145.204L72.1348 148.964L71.793 152.382L70.4258 154.433L68.0332 156.483L67.0078 157.167L66.666 167.079V181.776L70.4258 183.144L72.8184 185.878L73.8438 188.271V191.688L72.4766 194.423L69.7422 196.815L68.7168 197.157L69.4004 200.233L71.793 205.702L73.8438 209.462L77.6035 213.563L81.3633 215.956L85.8066 217.323H92.9844L97.7695 216.298L103.238 214.247L107.682 211.513L111.1 208.778L114.518 205.36L117.936 200.917L121.012 195.448L123.404 189.979L125.113 184.511L126.139 178.7L126.48 175.282V170.839L125.797 163.661L125.113 159.901L100.846 153.749L97.7695 152.724L96.0605 149.989L89.2246 135.976L85.4648 128.114L77.9453 112.733L75.8945 108.29L71.4512 107.948L68.375 106.581L65.6406 104.53L63.5898 101.112L63.248 100.087V95.3018L64.6152 92.2256L66.666 89.4912L69.4004 87.7822L71.793 87.0986H75.8945L79.3125 88.4658L82.0469 90.8584L83.7559 94.2764L84.4395 97.3525L84.0977 100.087L82.7305 103.163L81.3633 104.872L81.7051 106.581L87.8574 118.886L91.6172 126.747L97.4277 138.71L101.529 147.255L103.922 148.28L121.695 152.724L123.404 153.065L118.961 143.495L104.605 113.759L100.504 105.214L96.0605 95.9854L92.3008 88.124L86.832 76.5029L82.3887 67.2744L77.9453 57.7041L72.1348 45.3994L66.666 33.7783L61.5391 22.499L57.7793 22.1572L54.7031 20.79L52.6523 19.0811L50.6016 15.6631L49.918 13.9541V9.16895L51.2852 6.09277L53.6777 3.3584L57.7793 1.30762L59.8301 0.96582Z" fill="#8495B2"/>
</svg>
